<svg data-v-423bf9ae="" xmlns="http://www.w3.org/2000/svg" viewBox="0 0 1545.6074843840374 193" class="fontAboveSlogan"><!----><!----><!----><g data-v-423bf9ae="" id="46c19768-9be2-4244-b7d5-ce3425504b51" fill="white" transform="matrix(9.16730384597423,0,0,9.16730384597423,-9.297722621484922,-31.912253872679386)"><path d="M4.68 10.74L4.68 10.74L4.68 10.74Q5.54 9.45 6.39 8.37L6.39 8.37L6.39 8.37Q7.24 7.28 8.01 6.50L8.01 6.50L8.01 6.50Q8.78 5.71 9.42 5.28L9.42 5.28L9.42 5.28Q10.07 4.84 10.54 4.84L10.54 4.84L10.54 4.84Q10.72 4.84 10.94 4.98L10.94 4.98L10.94 4.98Q11.16 5.12 11.35 5.35L11.35 5.35L11.35 5.35Q11.54 5.57 11.66 5.83L11.66 5.83L11.66 5.83Q11.79 6.09 11.79 6.33L11.79 6.33L11.79 6.33Q10.92 6.61 10.09 7.06L10.09 7.06L10.09 7.06Q9.25 7.52 8.49 8.11L8.49 8.11L8.49 8.11Q7.73 8.71 7.04 9.44L7.04 9.44L7.04 9.44Q6.34 10.16 5.78 10.99L5.78 10.99L5.78 10.99Q6.01 11.56 6.33 12.21L6.33 12.21L6.33 12.21Q6.66 12.87 7.06 13.47L7.06 13.47L7.06 13.47Q7.45 14.08 7.90 14.60L7.90 14.60L7.90 14.60Q8.34 15.12 8.81 15.43L8.81 15.43L8.81 15.43Q8.74 15.58 8.57 15.72L8.57 15.72L8.57 15.72Q8.40 15.86 8.20 15.98L8.20 15.98L8.20 15.98Q8.01 16.10 7.79 16.17L7.79 16.17L7.79 16.17Q7.57 16.24 7.39 16.24L7.39 16.24L7.39 16.24Q7.03 16.24 6.72 15.90L6.72 15.90L6.72 15.90Q6.41 15.55 6.10 14.86L6.10 14.86L6.10 14.86Q5.78 14.17 5.44 13.14L5.44 13.14L5.44 13.14Q5.10 12.11 4.68 10.74ZM2.56 16.31L2.56 16.31L2.56 16.31Q2.03 16.18 1.68 15.87L1.68 15.87L1.68 15.87Q1.33 15.55 1.04 15.08L1.04 15.08L1.04 15.08Q1.16 14.81 1.34 14.38L1.34 14.38L1.34 14.38Q1.51 13.94 1.76 13.31L1.76 13.31L1.76 13.31Q2.02 12.67 2.37 11.78L2.37 11.78L2.37 11.78Q2.72 10.89 3.18 9.70L3.18 9.70L3.18 9.70Q3.47 8.95 3.66 8.43L3.66 8.43L3.66 8.43Q3.85 7.91 3.98 7.41L3.98 7.41L3.98 7.41Q4.12 6.92 4.24 6.31L4.24 6.31L4.24 6.31Q4.37 5.71 4.54 4.79L4.54 4.79L4.54 4.79Q5.12 4.90 5.61 5.31L5.61 5.31L5.61 5.31Q6.09 5.71 6.44 6.29L6.44 6.29L6.44 6.29Q6.29 6.48 6.08 6.88L6.08 6.88L6.08 6.88Q5.88 7.28 5.63 7.84L5.63 7.84L5.63 7.84Q5.38 8.40 5.07 9.09L5.07 9.09L5.07 9.09Q4.76 9.77 4.42 10.54L4.42 10.54L4.42 10.54Q3.67 12.22 3.23 13.62L3.23 13.62L3.23 13.62Q2.80 15.01 2.56 16.31ZM12.22 8.39L12.22 8.39L12.22 8.39Q12.59 8.50 12.91 8.88L12.91 8.88L12.91 8.88Q13.23 9.27 13.38 9.73L13.38 9.73L13.38 9.73Q13.23 10.11 12.91 10.64L12.91 10.64L12.91 10.64Q12.59 11.17 12.26 11.72L12.26 11.72L12.26 11.72Q11.94 12.28 11.68 12.78L11.68 12.78L11.68 12.78Q11.42 13.27 11.38 13.59L11.38 13.59L11.38 13.59Q11.61 13.36 11.88 13.04L11.88 13.04L11.88 13.04Q12.15 12.73 12.41 12.41L12.41 12.41L12.41 12.41Q12.67 12.10 12.89 11.84L12.89 11.84L12.89 11.84Q13.12 11.58 13.24 11.45L13.24 11.45L13.24 11.45Q13.51 11.17 13.87 10.80L13.87 10.80L13.87 10.80Q14.24 10.43 14.64 10.10L14.64 10.10L14.64 10.10Q15.04 9.77 15.44 9.54L15.44 9.54L15.44 9.54Q15.85 9.31 16.18 9.31L16.18 9.31L16.18 9.31Q16.55 9.31 16.79 9.55L16.79 9.55L16.79 9.55Q17.04 9.80 17.18 10.07L17.18 10.07L17.18 10.07Q17.18 10.09 17.07 10.14L17.07 10.14L17.07 10.14Q16.97 10.19 16.77 10.42L16.77 10.42L16.77 10.42Q16.58 10.67 16.33 11.11L16.33 11.11L16.33 11.11Q16.09 11.55 15.86 12.06L15.86 12.06L15.86 12.06Q15.62 12.57 15.47 13.10L15.47 13.10L15.47 13.10Q15.32 13.64 15.32 14.07L15.32 14.07L15.32 14.07Q15.32 14.42 15.41 14.52L15.41 14.52L15.41 14.52Q15.50 14.62 15.67 14.62L15.67 14.62L15.67 14.62Q15.82 14.62 15.99 14.55L15.99 14.55L15.99 14.55Q16.16 14.48 16.25 14.48L16.25 14.48L16.25 14.48Q16.31 14.50 16.34 14.60L16.34 14.60L16.34 14.60Q16.38 14.69 16.38 14.76L16.38 14.76L16.38 14.76Q16.27 14.85 16.11 14.95L16.11 14.95L16.11 14.95Q15.96 15.05 15.79 15.13L15.79 15.13L15.79 15.13Q15.62 15.22 15.46 15.27L15.46 15.27L15.46 15.27Q15.30 15.33 15.18 15.33L15.18 15.33L15.18 15.33Q14.77 15.33 14.51 15.21L14.51 15.21L14.51 15.21Q14.25 15.09 14.11 14.90L14.11 14.90L14.11 14.90Q13.96 14.70 13.90 14.43L13.90 14.43L13.90 14.43Q13.85 14.15 13.85 13.85L13.85 13.85L13.85 13.85Q13.85 13.68 13.87 13.47L13.87 13.47L13.87 13.47Q13.90 13.26 13.99 12.97L13.99 12.97L13.99 12.97Q14.07 12.68 14.22 12.29L14.22 12.29L14.22 12.29Q14.38 11.89 14.62 11.33L14.62 11.33L14.62 11.33Q14.59 11.33 14.24 11.52L14.24 11.52L14.24 11.52Q13.89 11.72 13.48 12.12L13.48 12.12L13.48 12.12Q12.82 12.75 12.30 13.37L12.30 13.37L12.30 13.37Q11.77 13.99 11.23 14.74L11.23 14.74L11.23 14.74Q10.92 15.18 10.69 15.48L10.69 15.48L10.69 15.48Q10.46 15.78 10.29 15.88L10.29 15.88L10.29 15.88Q10.00 15.71 9.86 15.41L9.86 15.41L9.86 15.41Q9.72 15.11 9.65 14.78L9.65 14.78L9.65 14.78Q9.65 14.52 9.72 14.11L9.72 14.11L9.72 14.11Q9.80 13.71 9.93 13.21L9.93 13.21L9.93 13.21Q10.07 12.71 10.26 12.17L10.26 12.17L10.26 12.17Q10.46 11.62 10.70 11.07L10.70 11.07L10.70 11.07Q11.23 9.84 11.67 9.14L11.67 9.14L11.67 9.14Q12.11 8.44 12.22 8.39ZM19.17 15.67L19.17 15.67L19.17 15.67Q18.37 15.58 17.89 14.97L17.89 14.97L17.89 14.97Q17.42 14.35 17.42 13.40L17.42 13.40L17.42 13.40Q17.42 12.84 17.58 12.24L17.58 12.24L17.58 12.24Q17.75 11.63 18.06 11.07L18.06 11.07L18.06 11.07Q18.37 10.50 18.79 10.00L18.79 10.00L18.79 10.00Q19.21 9.49 19.70 9.13L19.70 9.13L19.70 9.13Q20.47 8.55 21.14 8.55L21.14 8.55L21.14 8.55Q21.59 8.79 22.02 9.55L22.02 9.55L22.02 9.55Q22.09 9.55 22.15 9.54L22.15 9.54L22.15 9.54Q22.20 9.53 22.27 9.53L22.27 9.53L22.27 9.53Q23.02 9.53 23.02 10.85L23.02 10.85L23.02 10.85Q23.02 11.73 22.73 12.52L22.73 12.52L22.73 12.52Q22.44 13.31 21.93 13.96L21.93 13.96L21.93 13.96Q21.42 14.60 20.71 15.04L20.71 15.04L20.71 15.04Q20.01 15.48 19.17 15.67ZM19.88 11.26L19.88 11.26L19.88 11.26Q19.64 11.58 19.43 11.96L19.43 11.96L19.43 11.96Q19.22 12.33 19.07 12.72L19.07 12.72L19.07 12.72Q18.91 13.10 18.83 13.46L18.83 13.46L18.83 13.46Q18.75 13.82 18.75 14.10L18.75 14.10L18.75 14.10Q18.75 14.43 18.86 14.74L18.86 14.74L18.86 14.74Q18.97 15.05 19.11 15.09L19.11 15.09L19.11 15.09Q19.74 14.95 20.27 14.57L20.27 14.57L20.27 14.57Q20.79 14.18 21.17 13.61L21.17 13.61L21.17 13.61Q21.56 13.03 21.78 12.31L21.78 12.31L21.78 12.31Q21.99 11.58 21.99 10.75L21.99 10.75L21.99 10.75Q21.99 10.39 21.95 10.18L21.95 10.18L21.95 10.18Q21.91 9.97 21.81 9.81L21.81 9.81L21.81 9.81Q21.20 10.00 20.71 10.40L20.71 10.40L20.71 10.40Q20.23 10.81 19.88 11.26ZM23.81 14.60L23.81 14.60L23.81 14.60Q23.81 14.32 23.88 13.82L23.88 13.82L23.88 13.82Q23.94 13.31 24.04 12.73L24.04 12.73L24.04 12.73Q24.15 12.14 24.28 11.52L24.28 11.52L24.28 11.52Q24.42 10.91 24.56 10.42L24.56 10.42L24.56 10.42Q24.74 9.76 25.12 9.40L25.12 9.40L25.12 9.40Q25.51 9.04 26.08 9.04L26.08 9.04L26.08 9.04Q26.39 9.04 26.69 9.14L26.69 9.14L26.69 9.14Q26.99 9.24 27.05 9.39L27.05 9.39L27.05 9.39Q26.64 9.73 26.40 10.23L26.40 10.23L26.40 10.23Q26.15 10.72 26.00 11.29L26.00 11.29L26.00 11.29Q25.86 11.86 25.78 12.45L25.78 12.45L25.78 12.45Q25.70 13.05 25.62 13.57L25.62 13.57L25.62 13.57Q26.08 12.95 26.49 12.45L26.49 12.45L26.49 12.45Q26.91 11.96 27.23 11.66L27.23 11.66L27.23 11.66Q27.66 11.26 27.82 10.98L27.82 10.98L27.82 10.98Q27.97 10.71 28.08 10.39L28.08 10.39L28.08 10.39Q28.17 10.14 28.29 9.80L28.29 9.80L28.29 9.80Q28.41 9.46 28.69 9.18L28.69 9.18L28.69 9.18Q28.74 9.17 28.92 9.17L28.92 9.17L28.92 9.17Q29.06 9.17 29.22 9.18L29.22 9.18L29.22 9.18Q29.39 9.20 29.53 9.24L29.53 9.24L29.53 9.24Q29.67 9.28 29.76 9.34L29.76 9.34L29.76 9.34Q29.86 9.39 29.88 9.48L29.88 9.48L29.88 9.48Q29.65 9.77 29.46 10.39L29.46 10.39L29.46 10.39Q29.26 11.02 29.11 11.76L29.11 11.76L29.11 11.76Q28.95 12.50 28.83 13.24L28.83 13.24L28.83 13.24Q28.70 13.97 28.60 14.48L28.60 14.48L28.60 14.48Q28.66 14.45 28.85 14.25L28.85 14.25L28.85 14.25Q29.05 14.06 29.29 13.76L29.29 13.76L29.29 13.76Q29.54 13.47 29.81 13.12L29.81 13.12L29.81 13.12Q30.09 12.77 30.30 12.43L30.30 12.43L30.30 12.43Q30.56 12.03 30.74 11.67L30.74 11.67L30.74 11.67Q30.91 11.31 31.04 10.91L31.04 10.91L31.04 10.91Q31.18 10.50 31.29 10.00L31.29 10.00L31.29 10.00Q31.40 9.51 31.53 8.82L31.53 8.82L31.53 8.82Q31.61 8.71 31.90 8.63L31.90 8.63L31.90 8.63Q32.19 8.55 32.42 8.55L32.42 8.55L32.42 8.55Q32.63 8.55 32.73 8.62L32.73 8.62L32.73 8.62Q32.66 9.41 32.47 10.02L32.47 10.02L32.47 10.02Q32.28 10.64 31.96 11.22L31.96 11.22L31.96 11.22Q31.64 11.80 31.16 12.38L31.16 12.38L31.16 12.38Q30.69 12.96 30.04 13.65L30.04 13.65L30.04 13.65Q29.78 13.93 29.46 14.27L29.46 14.27L29.46 14.27Q29.15 14.60 28.85 14.89L28.85 14.89L28.85 14.89Q28.55 15.18 28.29 15.37L28.29 15.37L28.29 15.37Q28.03 15.57 27.89 15.57L27.89 15.57L27.89 15.57Q27.57 15.57 27.36 15.32L27.36 15.32L27.36 15.32Q27.15 15.06 27.15 14.67L27.15 14.67L27.15 14.67Q27.15 14.27 27.18 13.96L27.18 13.96L27.18 13.96Q27.22 13.66 27.30 13.33L27.30 13.33L27.30 13.33Q27.38 13.02 27.43 12.81L27.43 12.81L27.43 12.81Q27.48 12.60 27.52 12.45L27.52 12.45L27.52 12.45Q27.55 12.29 27.57 12.18L27.57 12.18L27.57 12.18Q27.58 12.07 27.59 11.96L27.59 11.96L27.59 11.96Q27.48 12.01 27.30 12.19L27.30 12.19L27.30 12.19Q27.12 12.36 26.92 12.59L26.92 12.59L26.92 12.59Q26.73 12.82 26.53 13.06L26.53 13.06L26.53 13.06Q26.33 13.30 26.21 13.47L26.21 13.47L26.21 13.47Q25.94 13.83 25.75 14.11L25.75 14.11L25.75 14.11Q25.55 14.39 25.38 14.64L25.38 14.64L25.38 14.64Q25.20 14.90 25.03 15.15L25.03 15.15L25.03 15.15Q24.86 15.41 24.64 15.71L24.64 15.71L24.64 15.71Q24.19 15.57 24.00 15.29L24.00 15.29L24.00 15.29Q23.81 15.01 23.81 14.60ZM41.13 10.35L41.13 10.35L41.13 10.35Q42.18 9.20 43.02 7.91L43.02 7.91L43.02 7.91Q43.85 6.62 44.56 5.01L44.56 5.01L44.56 5.01Q44.93 5.05 45.26 5.21L45.26 5.21L45.26 5.21Q45.60 5.36 45.79 5.56L45.79 5.56L45.79 5.56Q45.02 6.48 44.40 7.24L44.40 7.24L44.40 7.24Q43.78 7.99 43.26 8.66L43.26 8.66L43.26 8.66Q42.74 9.32 42.30 9.93L42.30 9.93L42.30 9.93Q41.86 10.54 41.44 11.16L41.44 11.16L41.44 11.16Q41.23 11.87 41.05 12.60L41.05 12.60L41.05 12.60Q40.87 13.33 40.73 13.99L40.73 13.99L40.73 13.99Q40.59 14.66 40.51 15.22L40.51 15.22L40.51 15.22Q40.43 15.79 40.43 16.20L40.43 16.20L40.43 16.20Q40.28 16.20 39.94 16.14L39.94 16.14L39.94 16.14Q39.61 16.07 39.26 15.99L39.26 15.99L39.26 15.99Q38.91 15.90 38.62 15.82L38.62 15.82L38.62 15.82Q38.33 15.74 38.28 15.68L38.28 15.68L38.28 15.68Q38.50 15.30 38.72 14.75L38.72 14.75L38.72 14.75Q38.93 14.20 39.14 13.59L39.14 13.59L39.14 13.59Q39.35 12.98 39.55 12.36L39.55 12.36L39.55 12.36Q39.75 11.73 39.91 11.20L39.91 11.20L39.91 11.20Q39.56 10.11 39.23 9.15L39.23 9.15L39.23 9.15Q38.91 8.19 38.60 7.41L38.60 7.41L38.60 7.41Q38.29 6.64 38.01 6.08L38.01 6.08L38.01 6.08Q37.73 5.52 37.48 5.22L37.48 5.22L37.48 5.22Q37.62 5.17 37.91 5.11L37.91 5.11L37.91 5.11Q38.19 5.05 38.53 5.00L38.53 5.00L38.53 5.00Q38.88 4.94 39.23 4.91L39.23 4.91L39.23 4.91Q39.59 4.87 39.87 4.86L39.87 4.86L39.87 4.86Q39.87 5.21 39.94 5.71L39.94 5.71L39.94 5.71Q40.00 6.22 40.10 6.79L40.10 6.79L40.10 6.79Q40.21 7.36 40.35 7.95L40.35 7.95L40.35 7.95Q40.49 8.54 40.63 9.03L40.63 9.03L40.63 9.03Q40.77 9.52 40.90 9.88L40.90 9.88L40.90 9.88Q41.03 10.23 41.13 10.35ZM45.01 15.67L45.01 15.67L45.01 15.67Q44.21 15.58 43.74 14.97L43.74 14.97L43.74 14.97Q43.26 14.35 43.26 13.40L43.26 13.40L43.26 13.40Q43.26 12.84 43.43 12.24L43.43 12.24L43.43 12.24Q43.60 11.63 43.90 11.07L43.90 11.07L43.90 11.07Q44.21 10.50 44.63 10.00L44.63 10.00L44.63 10.00Q45.05 9.49 45.54 9.13L45.54 9.13L45.54 9.13Q46.31 8.55 46.98 8.55L46.98 8.55L46.98 8.55Q47.43 8.79 47.87 9.55L47.87 9.55L47.87 9.55Q47.94 9.55 47.99 9.54L47.99 9.54L47.99 9.54Q48.05 9.53 48.12 9.53L48.12 9.53L48.12 9.53Q48.86 9.53 48.86 10.85L48.86 10.85L48.86 10.85Q48.86 11.73 48.57 12.52L48.57 12.52L48.57 12.52Q48.29 13.31 47.77 13.96L47.77 13.96L47.77 13.96Q47.26 14.60 46.56 15.04L46.56 15.04L46.56 15.04Q45.85 15.48 45.01 15.67ZM45.72 11.26L45.72 11.26L45.72 11.26Q45.49 11.58 45.28 11.96L45.28 11.96L45.28 11.96Q45.07 12.33 44.91 12.72L44.91 12.72L44.91 12.72Q44.76 13.10 44.67 13.46L44.67 13.46L44.67 13.46Q44.59 13.82 44.59 14.10L44.59 14.10L44.59 14.10Q44.59 14.43 44.70 14.74L44.70 14.74L44.70 14.74Q44.81 15.05 44.95 15.09L44.95 15.09L44.95 15.09Q45.58 14.95 46.11 14.57L46.11 14.57L46.11 14.57Q46.63 14.18 47.02 13.61L47.02 13.61L47.02 13.61Q47.40 13.03 47.62 12.31L47.62 12.31L47.62 12.31Q47.84 11.58 47.84 10.75L47.84 10.75L47.84 10.75Q47.84 10.39 47.80 10.18L47.80 10.18L47.80 10.18Q47.75 9.97 47.66 9.81L47.66 9.81L47.66 9.81Q47.04 10.00 46.56 10.40L46.56 10.40L46.56 10.40Q46.07 10.81 45.72 11.26ZM53.34 14.87L53.34 14.87L53.34 14.87Q53.07 14.64 52.98 14.31L52.98 14.31L52.98 14.31Q52.89 13.97 52.89 13.73L52.89 13.73L52.89 13.73Q52.89 13.44 52.96 13.23L52.96 13.23L52.96 13.23Q52.91 13.23 52.71 13.45L52.71 13.45L52.71 13.45Q52.51 13.68 52.28 13.99L52.28 13.99L52.28 13.99Q52.05 14.29 51.83 14.59L51.83 14.59L51.83 14.59Q51.60 14.88 51.49 15.02L51.49 15.02L51.49 15.02Q51.31 15.22 51.15 15.33L51.15 15.33L51.15 15.33Q50.99 15.44 50.89 15.46L50.89 15.46L50.89 15.46Q50.67 15.44 50.42 15.37L50.42 15.37L50.42 15.37Q50.18 15.29 49.96 15.15L49.96 15.15L49.96 15.15Q49.74 15.01 49.58 14.81L49.58 14.81L49.58 14.81Q49.42 14.62 49.36 14.36L49.36 14.36L49.36 14.36Q49.36 13.97 49.38 13.72L49.38 13.72L49.38 13.72Q49.41 13.47 49.48 13.17L49.48 13.17L49.48 13.17Q49.60 12.64 49.85 11.97L49.85 11.97L49.85 11.97Q50.09 11.30 50.41 10.65L50.41 10.65L50.41 10.65Q50.74 10.00 51.13 9.43L51.13 9.43L51.13 9.43Q51.53 8.86 51.98 8.54L51.98 8.54L51.98 8.54Q52.11 8.54 52.28 8.56L52.28 8.56L52.28 8.56Q52.44 8.58 52.62 8.64L52.62 8.64L52.62 8.64Q52.79 8.69 52.95 8.77L52.95 8.77L52.95 8.77Q53.12 8.85 53.23 8.97L53.23 8.97L53.23 8.97Q53.10 9.11 52.59 9.91L52.59 9.91L52.59 9.91Q52.08 10.71 51.45 12.21L51.45 12.21L51.45 12.21Q51.38 12.36 51.28 12.66L51.28 12.66L51.28 12.66Q51.18 12.95 51.09 13.27L51.09 13.27L51.09 13.27Q50.99 13.59 50.92 13.90L50.92 13.90L50.92 13.90Q50.86 14.21 50.86 14.39L50.86 14.39L50.86 14.39Q50.86 14.50 50.90 14.56L50.90 14.56L50.90 14.56Q50.93 14.62 50.96 14.64L50.96 14.64L50.96 14.64Q51.17 14.56 51.49 14.18L51.49 14.18L51.49 14.18Q51.81 13.80 52.39 13.02L52.39 13.02L52.39 13.02Q52.53 12.82 52.72 12.57L52.72 12.57L52.72 12.57Q52.91 12.32 53.10 12.03L53.10 12.03L53.10 12.03Q53.30 11.75 53.47 11.44L53.47 11.44L53.47 11.44Q53.65 11.13 53.76 10.82L53.76 10.82L53.76 10.82Q53.82 10.65 53.91 10.42L53.91 10.42L53.91 10.42Q54.00 10.19 54.13 9.94L54.13 9.94L54.13 9.94Q54.26 9.69 54.44 9.43L54.44 9.43L54.44 9.43Q54.61 9.17 54.85 8.95L54.85 8.95L54.85 8.95Q55.03 8.95 55.24 8.99L55.24 8.99L55.24 8.99Q55.45 9.03 55.64 9.09L55.64 9.09L55.64 9.09Q55.83 9.16 55.97 9.23L55.97 9.23L55.97 9.23Q56.11 9.31 56.18 9.39L56.18 9.39L56.18 9.39Q55.93 10.01 55.62 10.61L55.62 10.61L55.62 10.61Q55.31 11.21 55.05 11.79L55.05 11.79L55.05 11.79Q54.78 12.38 54.60 12.95L54.60 12.95L54.60 12.95Q54.42 13.52 54.42 14.07L54.42 14.07L54.42 14.07Q54.42 14.36 54.47 14.58L54.47 14.58L54.47 14.58Q54.52 14.80 54.57 14.95L54.57 14.95L54.57 14.95Q54.63 15.09 54.68 15.19L54.68 15.19L54.68 15.19Q54.73 15.29 54.73 15.36L54.73 15.36L54.73 15.36Q54.73 15.37 54.70 15.40L54.70 15.40L54.70 15.40Q54.68 15.41 54.67 15.41L54.67 15.41L54.67 15.41Q54.57 15.41 54.42 15.37L54.42 15.37L54.42 15.37Q54.26 15.33 54.08 15.25L54.08 15.25L54.08 15.25Q53.89 15.18 53.70 15.08L53.70 15.08L53.70 15.08Q53.51 14.98 53.34 14.87ZM56.11 14.90L56.11 14.90L56.11 14.90Q56.18 14.49 56.36 13.82L56.36 13.82L56.36 13.82Q56.53 13.16 56.77 12.41L56.77 12.41L56.77 12.41Q57.01 11.66 57.27 10.91L57.27 10.91L57.27 10.91Q57.54 10.15 57.79 9.55L57.79 9.55L57.79 9.55Q57.97 9.11 58.11 8.87L58.11 8.87L58.11 8.87Q58.25 8.62 58.42 8.46L58.42 8.46L58.42 8.46Q58.62 8.48 58.83 8.55L58.83 8.55L58.83 8.55Q59.04 8.62 59.23 8.72L59.23 8.72L59.23 8.72Q59.43 8.82 59.58 8.93L59.58 8.93L59.58 8.93Q59.74 9.03 59.82 9.13L59.82 9.13L59.82 9.13Q59.44 9.58 59.16 10.15L59.16 10.15L59.16 10.15Q58.87 10.72 58.58 11.62L58.58 11.62L58.58 11.62Q59.33 10.95 59.91 10.33L59.91 10.33L59.91 10.33Q60.49 9.72 61.00 8.96L61.00 8.96L61.00 8.96Q61.08 8.89 61.29 8.89L61.29 8.89L61.29 8.89Q61.49 8.89 61.67 8.95L61.67 8.95L61.67 8.95Q61.85 9.02 61.92 9.13L61.92 9.13L61.92 9.13Q61.67 9.80 61.67 10.46L61.67 10.46L61.67 10.46Q61.67 11.07 61.85 11.38L61.85 11.38L61.85 11.38Q61.84 11.47 61.66 11.70L61.66 11.70L61.66 11.70Q61.49 11.94 61.28 12.15L61.28 12.15L61.28 12.15Q60.90 11.96 60.61 11.61L60.61 11.61L60.61 11.61Q60.31 11.27 60.17 10.86L60.17 10.86L60.17 10.86Q59.51 11.33 59.05 11.77L59.05 11.77L59.05 11.77Q58.59 12.21 58.26 12.75L58.26 12.75L58.26 12.75Q57.93 13.29 57.70 13.99L57.70 13.99L57.70 13.99Q57.47 14.69 57.26 15.65L57.26 15.65L57.26 15.65Q57.13 15.64 56.96 15.56L56.96 15.56L56.96 15.56Q56.78 15.48 56.61 15.37L56.61 15.37L56.61 15.37Q56.43 15.26 56.29 15.13L56.29 15.13L56.29 15.13Q56.15 15.01 56.11 14.90ZM75.00 7.46L75.00 7.46L75.00 7.46Q75.00 8.13 74.70 8.73L74.70 8.73L74.70 8.73Q74.40 9.32 73.86 9.79L73.86 9.79L73.86 9.79Q73.33 10.26 72.62 10.58L72.62 10.58L72.62 10.58Q71.90 10.91 71.06 11.02L71.06 11.02L71.06 11.02Q71.27 11.65 71.58 12.31L71.58 12.31L71.58 12.31Q71.88 12.98 72.23 13.59L72.23 13.59L72.23 13.59Q72.58 14.21 72.95 14.73L72.95 14.73L72.95 14.73Q73.33 15.25 73.70 15.58L73.70 15.58L73.70 15.58Q73.63 15.72 73.49 15.86L73.49 15.86L73.49 15.86Q73.36 16.00 73.19 16.12L73.19 16.12L73.19 16.12Q73.01 16.24 72.82 16.32L72.82 16.32L72.82 16.32Q72.63 16.39 72.46 16.39L72.46 16.39L72.46 16.39Q72.16 16.39 71.88 16.10L71.88 16.10L71.88 16.10Q71.60 15.81 71.31 15.17L71.31 15.17L71.31 15.17Q71.02 14.53 70.71 13.52L70.71 13.52L70.71 13.52Q70.39 12.50 70.01 11.07L70.01 11.07L70.01 11.07Q69.86 11.07 69.71 11.07L69.71 11.07L69.71 11.07Q69.55 11.07 69.47 11.05L69.47 11.05L69.47 11.05Q69.37 10.99 69.26 10.85L69.26 10.85L69.26 10.85Q68.88 11.66 68.59 12.38L68.59 12.38L68.59 12.38Q68.29 13.09 68.06 13.76L68.06 13.76L68.06 13.76Q67.83 14.42 67.66 15.04L67.66 15.04L67.66 15.04Q67.48 15.67 67.35 16.31L67.35 16.31L67.35 16.31Q66.88 16.20 66.53 15.90L66.53 15.90L66.53 15.90Q66.18 15.61 65.87 15.08L65.87 15.08L65.87 15.08Q65.93 14.95 65.99 14.83L65.99 14.83L65.99 14.83Q66.05 14.71 66.15 14.50L66.15 14.50L66.15 14.50Q66.25 14.28 66.40 13.94L66.40 13.94L66.40 13.94Q66.54 13.61 66.79 13.05L66.79 13.05L66.79 13.05Q67.03 12.49 67.38 11.68L67.38 11.68L67.38 11.68Q67.72 10.86 68.21 9.70L68.21 9.70L68.21 9.70Q68.43 9.18 68.59 8.79L68.59 8.79L68.59 8.79Q68.75 8.40 68.88 8.04L68.88 8.04L68.88 8.04Q69.01 7.69 69.11 7.33L69.11 7.33L69.11 7.33Q69.22 6.97 69.33 6.51L69.33 6.51L69.33 6.51Q68.68 6.73 68.13 7.01L68.13 7.01L68.13 7.01Q67.58 7.28 67.21 7.59L67.21 7.59L67.21 7.59Q67.09 7.50 66.96 7.34L66.96 7.34L66.96 7.34Q66.82 7.17 66.71 6.96L66.71 6.96L66.71 6.96Q66.60 6.76 66.51 6.55L66.51 6.55L66.51 6.55Q66.43 6.34 66.42 6.17L66.42 6.17L66.42 6.17Q66.84 5.89 67.45 5.66L67.45 5.66L67.45 5.66Q68.05 5.42 68.74 5.24L68.74 5.24L68.74 5.24Q69.43 5.07 70.14 4.97L70.14 4.97L70.14 4.97Q70.85 4.87 71.47 4.87L71.47 4.87L71.47 4.87Q73.15 4.87 74.07 5.56L74.07 5.56L74.07 5.56Q75.00 6.26 75.00 7.46ZM71.41 6.02L71.58 6.29L71.58 6.29Q71.48 6.41 71.27 6.79L71.27 6.79L71.27 6.79Q71.06 7.17 70.79 7.69L70.79 7.69L70.79 7.69Q70.52 8.22 70.22 8.83L70.22 8.83L70.22 8.83Q69.92 9.45 69.64 10.05L69.64 10.05L69.64 10.05Q70.69 10.05 71.57 9.86L71.57 9.86L71.57 9.86Q72.45 9.66 73.09 9.30L73.09 9.30L73.09 9.30Q73.74 8.95 74.10 8.46L74.10 8.46L74.10 8.46Q74.45 7.98 74.45 7.39L74.45 7.39L74.45 7.39Q74.45 6.69 73.95 6.32L73.95 6.32L73.95 6.32Q73.44 5.95 72.39 5.95L72.39 5.95L72.39 5.95Q72.16 5.95 71.92 5.97L71.92 5.97L71.92 5.97Q71.68 5.99 71.41 6.02L71.41 6.02ZM79.52 9.38L79.52 9.38L79.52 9.38Q79.46 10.25 79.21 10.87L79.21 10.87L79.21 10.87Q78.96 11.49 78.49 11.96L78.49 11.96L78.49 11.96Q78.02 12.43 77.35 12.81L77.35 12.81L77.35 12.81Q76.68 13.19 75.78 13.54L75.78 13.54L75.78 13.54Q75.78 13.62 75.78 13.71L75.78 13.71L75.78 13.71Q75.77 13.80 75.77 13.90L75.77 13.90L75.77 13.90Q75.77 14.08 75.80 14.28L75.80 14.28L75.80 14.28Q75.82 14.48 75.89 14.64L75.89 14.64L75.89 14.64Q75.96 14.81 76.09 14.92L76.09 14.92L76.09 14.92Q76.22 15.02 76.41 15.02L76.41 15.02L76.41 15.02Q76.79 15.02 77.15 14.85L77.15 14.85L77.15 14.85Q77.52 14.69 77.85 14.44L77.85 14.44L77.85 14.44Q78.18 14.20 78.46 13.91L78.46 13.91L78.46 13.91Q78.75 13.62 78.97 13.38L78.97 13.38L78.97 13.38Q79.11 13.51 79.21 13.62L79.21 13.62L79.21 13.62Q78.58 14.46 77.83 15.02L77.83 15.02L77.83 15.02Q77.08 15.57 76.41 15.72L76.41 15.72L76.41 15.72Q75.45 15.61 74.91 15.02L74.91 15.02L74.91 15.02Q74.37 14.42 74.37 13.58L74.37 13.58L74.37 13.58Q74.37 13.01 74.53 12.41L74.53 12.41L74.53 12.41Q74.69 11.82 74.98 11.26L74.98 11.26L74.98 11.26Q75.26 10.71 75.65 10.22L75.65 10.22L75.65 10.22Q76.03 9.73 76.48 9.37L76.48 9.37L76.48 9.37Q76.92 9.00 77.39 8.79L77.39 8.79L77.39 8.79Q77.85 8.58 78.32 8.58L78.32 8.58L78.32 8.58Q78.96 8.67 79.52 9.38ZM78.55 9.84L78.55 9.84L78.55 9.84Q78.18 9.90 77.77 10.15L77.77 10.15L77.77 10.15Q77.36 10.40 77.01 10.82L77.01 10.82L77.01 10.82Q76.65 11.24 76.36 11.80L76.36 11.80L76.36 11.80Q76.06 12.36 75.89 13.01L75.89 13.01L75.89 13.01Q77.01 12.45 77.76 11.63L77.76 11.63L77.76 11.63Q78.50 10.81 78.55 9.84ZM84.99 9.60L84.99 9.60L84.99 9.60Q84.98 9.87 84.90 10.16L84.90 10.16L84.90 10.16Q84.83 10.44 84.71 10.68L84.71 10.68L84.71 10.68Q84.60 10.91 84.48 11.06L84.48 11.06L84.48 11.06Q84.35 11.21 84.24 11.21L84.24 11.21L84.24 11.21Q84.08 11.20 84.06 11.00L84.06 11.00L84.06 11.00Q84.06 10.96 84.09 10.87L84.09 10.87L84.09 10.87Q84.13 10.78 84.17 10.67L84.17 10.67L84.17 10.67Q84.21 10.56 84.25 10.44L84.25 10.44L84.25 10.44Q84.28 10.33 84.28 10.25L84.28 10.25L84.28 10.25Q84.28 10.05 84.19 9.92L84.19 9.92L84.19 9.92Q84.10 9.79 83.94 9.79L83.94 9.79L83.94 9.79Q83.38 9.79 83.09 10.49L83.09 10.49L83.09 10.49Q82.80 11.19 82.80 12.54L82.80 12.54L82.80 12.54Q82.80 12.68 82.81 12.71L82.81 12.71L82.81 12.71Q83.10 12.70 83.34 12.69L83.34 12.69L83.34 12.69Q83.57 12.68 83.79 12.68L83.79 12.68L83.79 12.68Q83.80 12.71 83.80 12.80L83.80 12.80L83.80 12.80Q83.80 12.92 83.75 12.98L83.75 12.98L83.75 12.98Q83.43 13.05 83.24 13.10L83.24 13.10L83.24 13.10Q83.05 13.15 82.95 13.19L82.95 13.19L82.95 13.19Q82.85 13.23 82.83 13.28L82.83 13.28L82.83 13.28Q82.81 13.33 82.81 13.41L82.81 13.41L82.81 13.41Q82.81 13.52 82.82 13.64L82.82 13.64L82.82 13.64Q82.82 13.75 82.82 13.92L82.82 13.92L82.82 13.92Q82.82 15.09 82.19 15.81L82.19 15.81L82.19 15.81Q81.55 16.52 80.42 16.63L80.42 16.63L80.42 16.63Q80.22 16.62 80.01 16.52L80.01 16.52L80.01 16.52Q79.80 16.42 79.61 16.27L79.61 16.27L79.61 16.27Q79.42 16.11 79.28 15.93L79.28 15.93L79.28 15.93Q79.14 15.74 79.09 15.54L79.09 15.54L79.09 15.54Q79.09 15.01 79.31 14.53L79.31 14.53L79.31 14.53Q79.53 14.04 79.92 13.67L79.92 13.67L79.92 13.67Q80.30 13.30 80.83 13.07L80.83 13.07L80.83 13.07Q81.35 12.84 81.97 12.80L81.97 12.80L81.97 12.80Q81.97 12.45 81.90 12.11L81.90 12.11L81.90 12.11Q81.83 11.77 81.75 11.46L81.75 11.46L81.75 11.46Q81.68 11.14 81.61 10.84L81.61 10.84L81.61 10.84Q81.54 10.54 81.54 10.25L81.54 10.25L81.54 10.25Q81.54 9.87 81.69 9.50L81.69 9.50L81.69 9.50Q81.84 9.13 82.10 8.81L82.10 8.81L82.10 8.81Q82.35 8.50 82.68 8.27L82.68 8.27L82.68 8.27Q83.02 8.05 83.38 7.97L83.38 7.97L83.38 7.97Q83.54 8.01 83.80 8.21L83.80 8.21L83.80 8.21Q84.06 8.41 84.31 8.67L84.31 8.67L84.31 8.67Q84.56 8.92 84.76 9.18L84.76 9.18L84.76 9.18Q84.95 9.44 84.99 9.60ZM80.37 15.99L80.37 15.99L80.37 15.99Q80.71 15.85 81.01 15.58L81.01 15.58L81.01 15.58Q81.31 15.32 81.54 14.98L81.54 14.98L81.54 14.98Q81.76 14.64 81.89 14.27L81.89 14.27L81.89 14.27Q82.03 13.89 82.03 13.52L82.03 13.52L82.03 13.52Q81.75 13.57 81.41 13.78L81.41 13.78L81.41 13.78Q81.07 14 80.78 14.30L80.78 14.30L80.78 14.30Q80.49 14.60 80.29 14.92L80.29 14.92L80.29 14.92Q80.09 15.25 80.09 15.48L80.09 15.48L80.09 15.48Q80.09 15.79 80.37 15.99ZM86.63 9.81L85.83 9.81L85.83 9.81Q85.76 9.73 85.71 9.46L85.71 9.46L85.71 9.46Q85.65 9.18 85.65 8.99L85.65 8.99L85.65 8.99Q86.02 9.02 86.35 9.04L86.35 9.04L86.35 9.04Q86.69 9.06 86.97 9.07L86.97 9.07L86.97 9.07Q87.18 8.65 87.42 8.24L87.42 8.24L87.42 8.24Q87.67 7.83 87.90 7.48L87.90 7.48L87.90 7.48Q88.13 7.14 88.33 6.90L88.33 6.90L88.33 6.90Q88.54 6.66 88.65 6.59L88.65 6.59L88.65 6.59Q88.79 6.59 89.01 6.64L89.01 6.64L89.01 6.64Q89.22 6.69 89.45 6.77L89.45 6.77L89.45 6.77Q89.67 6.85 89.85 6.93L89.85 6.93L89.85 6.93Q90.03 7.01 90.10 7.10L90.10 7.10L90.10 7.10Q89.68 7.63 89.38 8.09L89.38 8.09L89.38 8.09Q89.08 8.54 88.73 9.13L88.73 9.13L88.73 9.13Q89.01 9.13 89.30 9.11L89.30 9.11L89.30 9.11Q89.59 9.10 89.88 9.07L89.88 9.07L89.88 9.07Q89.95 9.14 89.99 9.25L89.99 9.25L89.99 9.25Q90.03 9.35 90.03 9.46L90.03 9.46L90.03 9.46Q89.35 9.72 88.37 9.74L88.37 9.74L88.37 9.74Q88.02 10.42 87.75 11.08L87.75 11.08L87.75 11.08Q87.47 11.75 87.28 12.36L87.28 12.36L87.28 12.36Q87.09 12.98 86.99 13.52L86.99 13.52L86.99 13.52Q86.88 14.07 86.88 14.50L86.88 14.50L86.88 14.50Q86.88 15.12 87.35 15.19L87.35 15.19L87.35 15.19Q87.77 15.13 88.14 14.98L88.14 14.98L88.14 14.98Q88.52 14.83 88.82 14.59L88.82 14.59L88.82 14.59Q88.90 14.71 88.91 14.80L88.91 14.80L88.91 14.80Q88.83 14.92 88.63 15.09L88.63 15.09L88.63 15.09Q88.42 15.26 88.19 15.42L88.19 15.42L88.19 15.42Q87.95 15.58 87.72 15.69L87.72 15.69L87.72 15.69Q87.50 15.81 87.39 15.82L87.39 15.82L87.39 15.82Q87.04 15.81 86.69 15.67L86.69 15.67L86.69 15.67Q86.34 15.53 86.05 15.32L86.05 15.32L86.05 15.32Q85.76 15.11 85.58 14.85L85.58 14.85L85.58 14.85Q85.40 14.59 85.40 14.34L85.40 14.34L85.40 14.34Q85.40 14 85.49 13.49L85.49 13.49L85.49 13.49Q85.58 12.98 85.75 12.38L85.75 12.38L85.75 12.38Q85.92 11.77 86.14 11.12L86.14 11.12L86.14 11.12Q86.37 10.46 86.63 9.81L86.63 9.81ZM93.74 14.87L93.74 14.87L93.74 14.87Q93.48 14.64 93.39 14.31L93.39 14.31L93.39 14.31Q93.30 13.97 93.30 13.73L93.30 13.73L93.30 13.73Q93.30 13.44 93.37 13.23L93.37 13.23L93.37 13.23Q93.31 13.23 93.11 13.45L93.11 13.45L93.11 13.45Q92.92 13.68 92.69 13.99L92.69 13.99L92.69 13.99Q92.46 14.29 92.23 14.59L92.23 14.59L92.23 14.59Q92.01 14.88 91.90 15.02L91.90 15.02L91.90 15.02Q91.71 15.22 91.55 15.33L91.55 15.33L91.55 15.33Q91.39 15.44 91.29 15.46L91.29 15.46L91.29 15.46Q91.07 15.44 90.83 15.37L90.83 15.37L90.83 15.37Q90.58 15.29 90.36 15.15L90.36 15.15L90.36 15.15Q90.15 15.01 89.98 14.81L89.98 14.81L89.98 14.81Q89.82 14.62 89.77 14.36L89.77 14.36L89.77 14.36Q89.77 13.97 89.79 13.72L89.79 13.72L89.79 13.72Q89.81 13.47 89.88 13.17L89.88 13.17L89.88 13.17Q90.01 12.64 90.25 11.97L90.25 11.97L90.25 11.97Q90.50 11.30 90.82 10.65L90.82 10.65L90.82 10.65Q91.14 10.00 91.54 9.43L91.54 9.43L91.54 9.43Q91.94 8.86 92.39 8.54L92.39 8.54L92.39 8.54Q92.51 8.54 92.68 8.56L92.68 8.56L92.68 8.56Q92.85 8.58 93.02 8.64L93.02 8.64L93.02 8.64Q93.20 8.69 93.36 8.77L93.36 8.77L93.36 8.77Q93.52 8.85 93.63 8.97L93.63 8.97L93.63 8.97Q93.51 9.11 93.00 9.91L93.00 9.91L93.00 9.91Q92.48 10.71 91.85 12.21L91.85 12.21L91.85 12.21Q91.78 12.36 91.69 12.66L91.69 12.66L91.69 12.66Q91.59 12.95 91.49 13.27L91.49 13.27L91.49 13.27Q91.39 13.59 91.33 13.90L91.33 13.90L91.33 13.90Q91.27 14.21 91.27 14.39L91.27 14.39L91.27 14.39Q91.27 14.50 91.30 14.56L91.30 14.56L91.30 14.56Q91.34 14.62 91.36 14.64L91.36 14.64L91.36 14.64Q91.57 14.56 91.90 14.18L91.90 14.18L91.90 14.18Q92.22 13.80 92.79 13.02L92.79 13.02L92.79 13.02Q92.93 12.82 93.12 12.57L93.12 12.57L93.12 12.57Q93.31 12.32 93.51 12.03L93.51 12.03L93.51 12.03Q93.70 11.75 93.88 11.44L93.88 11.44L93.88 11.44Q94.05 11.13 94.16 10.82L94.16 10.82L94.16 10.82Q94.22 10.65 94.31 10.42L94.31 10.42L94.31 10.42Q94.40 10.19 94.53 9.94L94.53 9.94L94.53 9.94Q94.67 9.69 94.84 9.43L94.84 9.43L94.84 9.43Q95.02 9.17 95.26 8.95L95.26 8.95L95.26 8.95Q95.44 8.95 95.65 8.99L95.65 8.99L95.65 8.99Q95.86 9.03 96.05 9.09L96.05 9.09L96.05 9.09Q96.24 9.16 96.38 9.23L96.38 9.23L96.38 9.23Q96.52 9.31 96.59 9.39L96.59 9.39L96.59 9.39Q96.33 10.01 96.03 10.61L96.03 10.61L96.03 10.61Q95.72 11.21 95.45 11.79L95.45 11.79L95.45 11.79Q95.19 12.38 95.00 12.95L95.00 12.95L95.00 12.95Q94.82 13.52 94.82 14.07L94.82 14.07L94.82 14.07Q94.82 14.36 94.87 14.58L94.87 14.58L94.87 14.58Q94.92 14.80 94.98 14.95L94.98 14.95L94.98 14.95Q95.03 15.09 95.08 15.19L95.08 15.19L95.08 15.19Q95.13 15.29 95.13 15.36L95.13 15.36L95.13 15.36Q95.13 15.37 95.10 15.40L95.10 15.40L95.10 15.40Q95.09 15.41 95.07 15.41L95.07 15.41L95.07 15.41Q94.98 15.41 94.82 15.37L94.82 15.37L94.82 15.37Q94.67 15.33 94.48 15.25L94.48 15.25L94.48 15.25Q94.29 15.18 94.10 15.08L94.10 15.08L94.10 15.08Q93.91 14.98 93.74 14.87ZM101.61 9.52L101.61 9.52L101.61 9.52Q101.75 9.52 101.94 9.57L101.94 9.57L101.94 9.57Q102.13 9.62 102.28 9.70L102.28 9.70L102.28 9.70Q102.44 9.77 102.54 9.86L102.54 9.86L102.54 9.86Q102.65 9.94 102.65 10.01L102.65 10.01L102.65 10.01Q102.37 10.60 102.13 11.19L102.13 11.19L102.13 11.19Q101.89 11.79 101.72 12.33L101.72 12.33L101.72 12.33Q101.56 12.88 101.47 13.36L101.47 13.36L101.47 13.36Q101.37 13.83 101.37 14.18L101.37 14.18L101.37 14.18Q101.37 14.57 101.46 14.83L101.46 14.83L101.46 14.83Q101.54 15.09 101.74 15.20L101.74 15.20L101.74 15.20Q101.57 15.32 101.30 15.39L101.30 15.39L101.30 15.39Q101.04 15.46 100.83 15.46L100.83 15.46L100.83 15.46Q100.07 15.46 100.07 14.42L100.07 14.42L100.07 14.42Q100.07 13.62 100.60 12.24L100.60 12.24L100.60 12.24Q100.32 12.88 99.96 13.45L99.96 13.45L99.96 13.45Q99.60 14.01 99.22 14.45L99.22 14.45L99.22 14.45Q98.84 14.88 98.46 15.15L98.46 15.15L98.46 15.15Q98.07 15.43 97.75 15.48L97.75 15.48L97.75 15.48Q97.23 15.46 96.91 14.99L96.91 14.99L96.91 14.99Q96.59 14.52 96.59 13.79L96.59 13.79L96.59 13.79Q96.59 13.01 96.92 12.14L96.92 12.14L96.92 12.14Q97.26 11.27 97.78 10.53L97.78 10.53L97.78 10.53Q98.31 9.79 98.92 9.29L98.92 9.29L98.92 9.29Q99.54 8.79 100.11 8.76L100.11 8.76L100.11 8.76Q100.25 8.81 100.43 8.93L100.43 8.93L100.43 8.93Q100.60 9.06 100.77 9.23L100.77 9.23L100.77 9.23Q100.93 9.39 101.04 9.57L101.04 9.57L101.04 9.57Q101.15 9.74 101.16 9.87L101.16 9.87L101.16 9.87Q100.60 9.95 100.01 10.42L100.01 10.42L100.01 10.42Q99.41 10.88 98.93 11.53L98.93 11.53L98.93 11.53Q98.45 12.18 98.14 12.92L98.14 12.92L98.14 12.92Q97.83 13.66 97.83 14.31L97.83 14.31L97.83 14.31Q97.83 14.57 98.03 14.64L98.03 14.64L98.03 14.64Q98.43 14.56 98.97 13.95L98.97 13.95L98.97 13.95Q99.50 13.34 100.25 12.07L100.25 12.07L100.25 12.07Q100.39 11.82 100.57 11.51L100.57 11.51L100.57 11.51Q100.74 11.20 100.93 10.86L100.93 10.86L100.93 10.86Q101.11 10.53 101.28 10.18L101.28 10.18L101.28 10.18Q101.46 9.84 101.61 9.52ZM103.03 14.90L103.03 14.90L103.03 14.90Q103.10 14.49 103.27 13.82L103.27 13.82L103.27 13.82Q103.45 13.16 103.68 12.41L103.68 12.41L103.68 12.41Q103.92 11.66 104.19 10.91L104.19 10.91L104.19 10.91Q104.45 10.15 104.71 9.55L104.71 9.55L104.71 9.55Q104.89 9.11 105.03 8.87L105.03 8.87L105.03 8.87Q105.17 8.62 105.34 8.46L105.34 8.46L105.34 8.46Q105.53 8.48 105.74 8.55L105.74 8.55L105.74 8.55Q105.95 8.62 106.15 8.72L106.15 8.72L106.15 8.72Q106.34 8.82 106.50 8.93L106.50 8.93L106.50 8.93Q106.65 9.03 106.74 9.13L106.74 9.13L106.74 9.13Q106.36 9.58 106.07 10.15L106.07 10.15L106.07 10.15Q105.78 10.72 105.49 11.62L105.49 11.62L105.49 11.62Q106.25 10.95 106.83 10.33L106.83 10.33L106.83 10.33Q107.41 9.72 107.91 8.96L107.91 8.96L107.91 8.96Q108.00 8.89 108.21 8.89L108.21 8.89L108.21 8.89Q108.40 8.89 108.58 8.95L108.58 8.95L108.58 8.95Q108.77 9.02 108.84 9.13L108.84 9.13L108.84 9.13Q108.58 9.80 108.58 10.46L108.58 10.46L108.58 10.46Q108.58 11.07 108.77 11.38L108.77 11.38L108.77 11.38Q108.75 11.47 108.58 11.70L108.58 11.70L108.58 11.70Q108.40 11.94 108.19 12.15L108.19 12.15L108.19 12.15Q107.81 11.96 107.52 11.61L107.52 11.61L107.52 11.61Q107.23 11.27 107.09 10.86L107.09 10.86L107.09 10.86Q106.43 11.33 105.97 11.77L105.97 11.77L105.97 11.77Q105.50 12.21 105.18 12.75L105.18 12.75L105.18 12.75Q104.85 13.29 104.62 13.99L104.62 13.99L104.62 13.99Q104.38 14.69 104.17 15.65L104.17 15.65L104.17 15.65Q104.05 15.64 103.87 15.56L103.87 15.56L103.87 15.56Q103.70 15.48 103.52 15.37L103.52 15.37L103.52 15.37Q103.35 15.26 103.21 15.13L103.21 15.13L103.21 15.13Q103.07 15.01 103.03 14.90ZM113.83 9.52L113.83 9.52L113.83 9.52Q113.97 9.52 114.16 9.57L114.16 9.57L114.16 9.57Q114.35 9.62 114.51 9.70L114.51 9.70L114.51 9.70Q114.66 9.77 114.77 9.86L114.77 9.86L114.77 9.86Q114.87 9.94 114.87 10.01L114.87 10.01L114.87 10.01Q114.59 10.60 114.35 11.19L114.35 11.19L114.35 11.19Q114.11 11.79 113.95 12.33L113.95 12.33L113.95 12.33Q113.78 12.88 113.69 13.36L113.69 13.36L113.69 13.36Q113.60 13.83 113.60 14.18L113.60 14.18L113.60 14.18Q113.60 14.57 113.68 14.83L113.68 14.83L113.68 14.83Q113.76 15.09 113.96 15.20L113.96 15.20L113.96 15.20Q113.79 15.32 113.53 15.39L113.53 15.39L113.53 15.39Q113.26 15.46 113.05 15.46L113.05 15.46L113.05 15.46Q112.29 15.46 112.29 14.42L112.29 14.42L112.29 14.42Q112.29 13.62 112.83 12.24L112.83 12.24L112.83 12.24Q112.55 12.88 112.18 13.45L112.18 13.45L112.18 13.45Q111.82 14.01 111.44 14.45L111.44 14.45L111.44 14.45Q111.06 14.88 110.68 15.15L110.68 15.15L110.68 15.15Q110.29 15.43 109.97 15.48L109.97 15.48L109.97 15.48Q109.45 15.46 109.13 14.99L109.13 14.99L109.13 14.99Q108.81 14.52 108.81 13.79L108.81 13.79L108.81 13.79Q108.81 13.01 109.14 12.14L109.14 12.14L109.14 12.14Q109.48 11.27 110.00 10.53L110.00 10.53L110.00 10.53Q110.53 9.79 111.15 9.29L111.15 9.29L111.15 9.29Q111.76 8.79 112.34 8.76L112.34 8.76L112.34 8.76Q112.48 8.81 112.65 8.93L112.65 8.93L112.65 8.93Q112.83 9.06 112.99 9.23L112.99 9.23L112.99 9.23Q113.15 9.39 113.26 9.57L113.26 9.57L113.26 9.57Q113.37 9.74 113.39 9.87L113.39 9.87L113.39 9.87Q112.83 9.95 112.23 10.42L112.23 10.42L112.23 10.42Q111.64 10.88 111.15 11.53L111.15 11.53L111.15 11.53Q110.67 12.18 110.36 12.92L110.36 12.92L110.36 12.92Q110.05 13.66 110.05 14.31L110.05 14.31L110.05 14.31Q110.05 14.57 110.25 14.64L110.25 14.64L110.25 14.64Q110.66 14.56 111.19 13.95L111.19 13.95L111.19 13.95Q111.72 13.34 112.48 12.07L112.48 12.07L112.48 12.07Q112.62 11.82 112.79 11.51L112.79 11.51L112.79 11.51Q112.97 11.20 113.15 10.86L113.15 10.86L113.15 10.86Q113.33 10.53 113.50 10.18L113.50 10.18L113.50 10.18Q113.68 9.84 113.83 9.52ZM117.85 8.39L117.85 8.39L117.85 8.39Q118.22 8.50 118.54 8.88L118.54 8.88L118.54 8.88Q118.86 9.27 119.01 9.73L119.01 9.73L119.01 9.73Q118.86 10.11 118.54 10.64L118.54 10.64L118.54 10.64Q118.22 11.17 117.89 11.72L117.89 11.72L117.89 11.72Q117.57 12.28 117.31 12.78L117.31 12.78L117.31 12.78Q117.05 13.27 117.01 13.59L117.01 13.59L117.01 13.59Q117.24 13.36 117.51 13.04L117.51 13.04L117.51 13.04Q117.78 12.73 118.04 12.41L118.04 12.41L118.04 12.41Q118.30 12.10 118.52 11.84L118.52 11.84L118.52 11.84Q118.75 11.58 118.87 11.45L118.87 11.45L118.87 11.45Q119.14 11.17 119.50 10.80L119.50 10.80L119.50 10.80Q119.87 10.43 120.27 10.10L120.27 10.10L120.27 10.10Q120.67 9.77 121.07 9.54L121.07 9.54L121.07 9.54Q121.48 9.31 121.81 9.31L121.81 9.31L121.81 9.31Q122.18 9.31 122.42 9.55L122.42 9.55L122.42 9.55Q122.67 9.80 122.81 10.07L122.81 10.07L122.81 10.07Q122.81 10.09 122.70 10.14L122.70 10.14L122.70 10.14Q122.60 10.19 122.40 10.42L122.40 10.42L122.40 10.42Q122.21 10.67 121.96 11.11L121.96 11.11L121.96 11.11Q121.72 11.55 121.48 12.06L121.48 12.06L121.48 12.06Q121.25 12.57 121.10 13.10L121.10 13.10L121.10 13.10Q120.95 13.64 120.95 14.07L120.95 14.07L120.95 14.07Q120.95 14.42 121.04 14.52L121.04 14.52L121.04 14.52Q121.13 14.62 121.30 14.62L121.30 14.62L121.30 14.62Q121.45 14.62 121.62 14.55L121.62 14.55L121.62 14.55Q121.79 14.48 121.88 14.48L121.88 14.48L121.88 14.48Q121.94 14.50 121.97 14.60L121.97 14.60L121.97 14.60Q122.01 14.69 122.01 14.76L122.01 14.76L122.01 14.76Q121.90 14.85 121.74 14.95L121.74 14.95L121.74 14.95Q121.59 15.05 121.42 15.13L121.42 15.13L121.42 15.13Q121.25 15.22 121.09 15.27L121.09 15.27L121.09 15.27Q120.93 15.33 120.81 15.33L120.81 15.33L120.81 15.33Q120.40 15.33 120.14 15.21L120.14 15.21L120.14 15.21Q119.88 15.09 119.73 14.90L119.73 14.90L119.73 14.90Q119.59 14.70 119.53 14.43L119.53 14.43L119.53 14.43Q119.48 14.15 119.48 13.85L119.48 13.85L119.48 13.85Q119.48 13.68 119.50 13.47L119.50 13.47L119.50 13.47Q119.53 13.26 119.62 12.97L119.62 12.97L119.62 12.97Q119.70 12.68 119.85 12.29L119.85 12.29L119.85 12.29Q120.01 11.89 120.25 11.33L120.25 11.33L120.25 11.33Q120.22 11.33 119.87 11.52L119.87 11.52L119.87 11.52Q119.52 11.72 119.11 12.12L119.11 12.12L119.11 12.12Q118.45 12.75 117.93 13.37L117.93 13.37L117.93 13.37Q117.40 13.99 116.86 14.74L116.86 14.74L116.86 14.74Q116.55 15.18 116.32 15.48L116.32 15.48L116.32 15.48Q116.09 15.78 115.92 15.88L115.92 15.88L115.92 15.88Q115.63 15.71 115.49 15.41L115.49 15.41L115.49 15.41Q115.35 15.11 115.28 14.78L115.28 14.78L115.28 14.78Q115.28 14.52 115.35 14.11L115.35 14.11L115.35 14.11Q115.43 13.71 115.56 13.21L115.56 13.21L115.56 13.21Q115.70 12.71 115.89 12.17L115.89 12.17L115.89 12.17Q116.09 11.62 116.33 11.07L116.33 11.07L116.33 11.07Q116.86 9.84 117.30 9.14L117.30 9.14L117.30 9.14Q117.74 8.44 117.85 8.39ZM124.77 9.81L123.97 9.81L123.97 9.81Q123.90 9.73 123.84 9.46L123.84 9.46L123.84 9.46Q123.79 9.18 123.79 8.99L123.79 8.99L123.79 8.99Q124.15 9.02 124.49 9.04L124.49 9.04L124.49 9.04Q124.82 9.06 125.10 9.07L125.10 9.07L125.10 9.07Q125.31 8.65 125.56 8.24L125.56 8.24L125.56 8.24Q125.80 7.83 126.03 7.48L126.03 7.48L126.03 7.48Q126.27 7.14 126.47 6.90L126.47 6.90L126.47 6.90Q126.67 6.66 126.78 6.59L126.78 6.59L126.78 6.59Q126.92 6.59 127.14 6.64L127.14 6.64L127.14 6.64Q127.36 6.69 127.58 6.77L127.58 6.77L127.58 6.77Q127.81 6.85 127.99 6.93L127.99 6.93L127.99 6.93Q128.17 7.01 128.24 7.10L128.24 7.10L128.24 7.10Q127.82 7.63 127.52 8.09L127.52 8.09L127.52 8.09Q127.22 8.54 126.87 9.13L126.87 9.13L126.87 9.13Q127.15 9.13 127.44 9.11L127.44 9.11L127.44 9.11Q127.72 9.10 128.02 9.07L128.02 9.07L128.02 9.07Q128.09 9.14 128.13 9.25L128.13 9.25L128.13 9.25Q128.17 9.35 128.17 9.46L128.17 9.46L128.17 9.46Q127.48 9.72 126.50 9.74L126.50 9.74L126.50 9.74Q126.15 10.42 125.88 11.08L125.88 11.08L125.88 11.08Q125.61 11.75 125.42 12.36L125.42 12.36L125.42 12.36Q125.23 12.98 125.13 13.52L125.13 13.52L125.13 13.52Q125.02 14.07 125.02 14.50L125.02 14.50L125.02 14.50Q125.02 15.12 125.48 15.19L125.48 15.19L125.48 15.19Q125.90 15.13 126.28 14.98L126.28 14.98L126.28 14.98Q126.66 14.83 126.95 14.59L126.95 14.59L126.95 14.59Q127.04 14.71 127.05 14.80L127.05 14.80L127.05 14.80Q126.97 14.92 126.76 15.09L126.76 15.09L126.76 15.09Q126.56 15.26 126.32 15.42L126.32 15.42L126.32 15.42Q126.08 15.58 125.86 15.69L125.86 15.69L125.86 15.69Q125.64 15.81 125.52 15.82L125.52 15.82L125.52 15.82Q125.17 15.81 124.82 15.67L124.82 15.67L124.82 15.67Q124.47 15.53 124.19 15.32L124.19 15.32L124.19 15.32Q123.90 15.11 123.72 14.85L123.72 14.85L123.72 14.85Q123.54 14.59 123.54 14.34L123.54 14.34L123.54 14.34Q123.54 14 123.63 13.49L123.63 13.49L123.63 13.49Q123.72 12.98 123.89 12.38L123.89 12.38L123.89 12.38Q124.05 11.77 124.28 11.12L124.28 11.12L124.28 11.12Q124.50 10.46 124.77 9.81L124.77 9.81ZM138.32 10.53L138.32 10.53L138.32 10.53Q137.82 10.53 137.59 10.37L137.59 10.37L137.59 10.37Q137.37 10.21 137.37 9.86L137.37 9.86L137.37 9.86Q137.37 9.63 137.45 9.34L137.45 9.34L137.45 9.34Q137.72 9.38 137.96 9.39L137.96 9.39L137.96 9.39Q138.21 9.41 138.56 9.41L138.56 9.41L138.56 9.41Q139.01 9.41 139.31 9.40L139.31 9.40L139.31 9.40Q139.61 9.39 139.81 9.38L139.81 9.38L139.81 9.38Q140.01 9.37 140.13 9.36L140.13 9.36L140.13 9.36Q140.25 9.35 140.35 9.35L140.35 9.35L140.35 9.35Q140.69 9.35 140.84 9.60L140.84 9.60L140.84 9.60Q140.99 9.84 141.13 10.43L141.13 10.43L141.13 10.43Q140.73 10.39 140.47 10.37L140.47 10.37L140.47 10.37Q140.21 10.36 140.01 10.36L140.01 10.36L140.01 10.36Q139.87 10.36 139.76 10.37L139.76 10.37L139.76 10.37Q139.65 10.37 139.55 10.37L139.55 10.37L139.55 10.37Q139.06 11.16 138.42 12.06L138.42 12.06L138.42 12.06Q137.79 12.96 137.05 13.78L137.05 13.78L137.05 13.78Q136.32 14.59 135.52 15.22L135.52 15.22L135.52 15.22Q134.72 15.86 133.92 16.11L133.92 16.11L133.92 16.11Q133.38 16.06 132.93 15.85L132.93 15.85L132.93 15.85Q132.48 15.64 132.15 15.32L132.15 15.32L132.15 15.32Q131.81 15.01 131.61 14.60L131.61 14.60L131.61 14.60Q131.42 14.18 131.39 13.71L131.39 13.71L131.39 13.71Q131.40 13.05 131.66 12.40L131.66 12.40L131.66 12.40Q131.92 11.75 132.33 11.19L132.33 11.19L132.33 11.19Q132.73 10.63 133.25 10.18L133.25 10.18L133.25 10.18Q133.76 9.73 134.27 9.46L134.27 9.46L134.27 9.46Q133.76 9.24 133.54 8.93L133.54 8.93L133.54 8.93Q133.32 8.62 133.32 8.26L133.32 8.26L133.32 8.26Q133.32 7.76 133.68 7.20L133.68 7.20L133.68 7.20Q134.04 6.65 134.57 6.17L134.57 6.17L134.57 6.17Q135.10 5.70 135.71 5.36L135.71 5.36L135.71 5.36Q136.32 5.01 136.82 4.93L136.82 4.93L136.82 4.93Q136.96 4.96 137.22 5.10L137.22 5.10L137.22 5.10Q137.48 5.25 137.73 5.46L137.73 5.46L137.73 5.46Q137.98 5.67 138.19 5.89L138.19 5.89L138.19 5.89Q138.39 6.10 138.42 6.26L138.42 6.26L138.42 6.26Q138.39 6.43 138.30 6.64L138.30 6.64L138.30 6.64Q138.21 6.85 138.07 7.05L138.07 7.05L138.07 7.05Q137.93 7.25 137.77 7.43L137.77 7.43L137.77 7.43Q137.62 7.62 137.47 7.73L137.47 7.73L137.47 7.73Q137.33 7.69 137.30 7.59L137.30 7.59L137.30 7.59Q137.47 7.42 137.62 7.11L137.62 7.11L137.62 7.11Q137.77 6.79 137.77 6.51L137.77 6.51L137.77 6.51Q137.77 6.36 137.70 6.31L137.70 6.31L137.70 6.31Q137.63 6.26 137.48 6.26L137.48 6.26L137.48 6.26Q137.09 6.26 136.61 6.57L136.61 6.57L136.61 6.57Q136.14 6.87 135.72 7.34L135.72 7.34L135.72 7.34Q135.31 7.80 135.03 8.32L135.03 8.32L135.03 8.32Q134.75 8.85 134.75 9.28L134.75 9.28L134.75 9.28Q134.90 9.30 135.12 9.37L135.12 9.37L135.12 9.37Q135.34 9.45 135.55 9.56L135.55 9.56L135.55 9.56Q135.76 9.67 135.92 9.80L135.92 9.80L135.92 9.80Q136.08 9.93 136.12 10.02L136.12 10.02L136.12 10.02Q135.44 10.19 134.85 10.68L134.85 10.68L134.85 10.68Q134.27 11.17 133.85 11.80L133.85 11.80L133.85 11.80Q133.43 12.43 133.20 13.12L133.20 13.12L133.20 13.12Q132.97 13.80 132.97 14.35L132.97 14.35L132.97 14.35Q132.97 14.84 133.18 15.15L133.18 15.15L133.18 15.15Q133.39 15.47 133.84 15.47L133.84 15.47L133.84 15.47Q134.22 15.47 134.66 15.22L134.66 15.22L134.66 15.22Q135.10 14.98 135.57 14.57L135.57 14.57L135.57 14.57Q136.04 14.15 136.51 13.63L136.51 13.63L136.51 13.63Q136.98 13.10 137.42 12.55L137.42 12.55L137.42 12.55Q137.86 12.00 138.24 11.46L138.24 11.46L138.24 11.46Q138.63 10.92 138.94 10.47L138.94 10.47L138.94 10.47Q138.81 10.50 138.66 10.51L138.66 10.51L138.66 10.51Q138.52 10.53 138.32 10.53ZM150.00 9.34L150.00 9.34L150.00 9.34Q150.44 9.34 150.70 9.59L150.70 9.59L150.70 9.59Q150.96 9.84 150.96 10.29L150.96 10.29L150.96 10.29Q150.96 10.40 150.95 10.52L150.95 10.52L150.95 10.52Q150.93 10.64 150.89 10.72L150.89 10.72L150.89 10.72Q150.71 10.70 150.49 10.68L150.49 10.68L150.49 10.68Q150.26 10.65 149.95 10.65L149.95 10.65L149.95 10.65Q149.32 10.65 148.69 10.77L148.69 10.77L148.69 10.77Q148.06 10.88 147.49 10.95L147.49 10.95L147.49 10.95Q146.86 12.43 146.45 13.73L146.45 13.73L146.45 13.73Q146.05 15.04 145.82 16.31L145.82 16.31L145.82 16.31Q145.35 16.20 144.98 15.90L144.98 15.90L144.98 15.90Q144.62 15.61 144.30 15.08L144.30 15.08L144.30 15.08Q144.40 14.85 144.54 14.54L144.54 14.54L144.54 14.54Q144.68 14.22 144.87 13.74L144.87 13.74L144.87 13.74Q145.07 13.26 145.34 12.56L145.34 12.56L145.34 12.56Q145.61 11.87 145.99 10.91L145.99 10.91L145.99 10.91Q145.40 10.71 145.22 10.22L145.22 10.22L145.22 10.22Q145.29 10.15 145.61 10.06L145.61 10.06L145.61 10.06Q145.94 9.97 146.40 9.86L146.40 9.86L146.40 9.86Q146.61 9.31 146.76 8.88L146.76 8.88L146.76 8.88Q146.92 8.46 147.04 8.07L147.04 8.07L147.04 8.07Q147.17 7.69 147.27 7.32L147.27 7.32L147.27 7.32Q147.38 6.94 147.46 6.52L147.46 6.52L147.39 6.52L147.39 6.52Q146.86 6.52 146.53 6.27L146.53 6.27L146.53 6.27Q146.20 6.02 146.20 5.61L146.20 5.61L146.20 5.61Q146.20 5.50 146.24 5.35L146.24 5.35L146.24 5.35Q146.27 5.19 146.33 5.08L146.33 5.08L146.33 5.08Q146.59 5.12 146.85 5.14L146.85 5.14L146.85 5.14Q147.11 5.15 147.53 5.15L147.53 5.15L147.53 5.15Q148.41 5.15 149.18 5.10L149.18 5.10L149.18 5.10Q149.95 5.05 150.58 5.00L150.58 5.00L150.58 5.00Q151.20 4.94 151.65 4.89L151.65 4.89L151.65 4.89Q152.10 4.84 152.33 4.84L152.33 4.84L152.33 4.84Q152.66 4.84 152.91 5.18L152.91 5.18L152.91 5.18Q153.16 5.52 153.30 6.13L153.30 6.13L153.30 6.13Q152.85 6.09 152.58 6.08L152.58 6.08L152.58 6.08Q152.31 6.06 152.10 6.06L152.10 6.06L152.10 6.06Q151.38 6.06 150.79 6.13L150.79 6.13L150.79 6.13Q150.19 6.19 149.66 6.27L149.66 6.27L149.66 6.27Q149.58 6.40 149.47 6.59L149.47 6.59L149.47 6.59Q149.37 6.79 149.20 7.15L149.20 7.15L149.20 7.15Q149.03 7.50 148.77 8.08L148.77 8.08L148.77 8.08Q148.51 8.65 148.12 9.53L148.12 9.53L148.12 9.53Q148.67 9.45 149.16 9.39L149.16 9.39L149.16 9.39Q149.66 9.34 150.00 9.34ZM153.24 15.67L153.24 15.67L153.24 15.67Q152.45 15.58 151.97 14.97L151.97 14.97L151.97 14.97Q151.49 14.35 151.49 13.40L151.49 13.40L151.49 13.40Q151.49 12.84 151.66 12.24L151.66 12.24L151.66 12.24Q151.83 11.63 152.14 11.07L152.14 11.07L152.14 11.07Q152.45 10.50 152.87 10.00L152.87 10.00L152.87 10.00Q153.29 9.49 153.78 9.13L153.78 9.13L153.78 9.13Q154.55 8.55 155.22 8.55L155.22 8.55L155.22 8.55Q155.67 8.79 156.10 9.55L156.10 9.55L156.10 9.55Q156.17 9.55 156.23 9.54L156.23 9.54L156.23 9.54Q156.28 9.53 156.35 9.53L156.35 9.53L156.35 9.53Q157.09 9.53 157.09 10.85L157.09 10.85L157.09 10.85Q157.09 11.73 156.81 12.52L156.81 12.52L156.81 12.52Q156.52 13.31 156.01 13.96L156.01 13.96L156.01 13.96Q155.50 14.60 154.79 15.04L154.79 15.04L154.79 15.04Q154.08 15.48 153.24 15.67ZM153.96 11.26L153.96 11.26L153.96 11.26Q153.72 11.58 153.51 11.96L153.51 11.96L153.51 11.96Q153.30 12.33 153.15 12.72L153.15 12.72L153.15 12.72Q152.99 13.10 152.91 13.46L152.91 13.46L152.91 13.46Q152.82 13.82 152.82 14.10L152.82 14.10L152.82 14.10Q152.82 14.43 152.94 14.74L152.94 14.74L152.94 14.74Q153.05 15.05 153.19 15.09L153.19 15.09L153.19 15.09Q153.82 14.95 154.34 14.57L154.34 14.57L154.34 14.57Q154.87 14.18 155.25 13.61L155.25 13.61L155.25 13.61Q155.64 13.03 155.85 12.31L155.85 12.31L155.85 12.31Q156.07 11.58 156.07 10.75L156.07 10.75L156.07 10.75Q156.07 10.39 156.03 10.18L156.03 10.18L156.03 10.18Q155.99 9.97 155.89 9.81L155.89 9.81L155.89 9.81Q155.27 10.00 154.79 10.40L154.79 10.40L154.79 10.40Q154.31 10.81 153.96 11.26ZM159.42 15.67L159.42 15.67L159.42 15.67Q158.62 15.58 158.14 14.97L158.14 14.97L158.14 14.97Q157.67 14.35 157.67 13.40L157.67 13.40L157.67 13.40Q157.67 12.84 157.84 12.24L157.84 12.24L157.84 12.24Q158.00 11.63 158.31 11.07L158.31 11.07L158.31 11.07Q158.62 10.50 159.04 10.00L159.04 10.00L159.04 10.00Q159.46 9.49 159.95 9.13L159.95 9.13L159.95 9.13Q160.72 8.55 161.39 8.55L161.39 8.55L161.39 8.55Q161.84 8.79 162.27 9.55L162.27 9.55L162.27 9.55Q162.34 9.55 162.40 9.54L162.40 9.54L162.40 9.54Q162.46 9.53 162.53 9.53L162.53 9.53L162.53 9.53Q163.27 9.53 163.27 10.85L163.27 10.85L163.27 10.85Q163.27 11.73 162.98 12.52L162.98 12.52L162.98 12.52Q162.69 13.31 162.18 13.96L162.18 13.96L162.18 13.96Q161.67 14.60 160.96 15.04L160.96 15.04L160.96 15.04Q160.26 15.48 159.42 15.67ZM160.13 11.26L160.13 11.26L160.13 11.26Q159.89 11.58 159.68 11.96L159.68 11.96L159.68 11.96Q159.47 12.33 159.32 12.72L159.32 12.72L159.32 12.72Q159.17 13.10 159.08 13.46L159.08 13.46L159.08 13.46Q159.00 13.82 159.00 14.10L159.00 14.10L159.00 14.10Q159.00 14.43 159.11 14.74L159.11 14.74L159.11 14.74Q159.22 15.05 159.36 15.09L159.36 15.09L159.36 15.09Q159.99 14.95 160.52 14.57L160.52 14.57L160.52 14.57Q161.04 14.18 161.43 13.61L161.43 13.61L161.43 13.61Q161.81 13.03 162.03 12.31L162.03 12.31L162.03 12.31Q162.25 11.58 162.25 10.75L162.25 10.75L162.25 10.75Q162.25 10.39 162.20 10.18L162.20 10.18L162.20 10.18Q162.16 9.97 162.06 9.81L162.06 9.81L162.06 9.81Q161.45 10.00 160.96 10.40L160.96 10.40L160.96 10.40Q160.48 10.81 160.13 11.26ZM166.99 8.64L166.99 8.64L166.99 8.64Q167.27 8.64 167.64 8.81L167.64 8.81L167.64 8.81Q168 8.97 168.28 9.24L168.28 9.24L168.28 9.24Q168.21 8.68 168.10 8.18L168.10 8.18L168.10 8.18Q168 7.69 167.80 7.15L167.80 7.15L167.80 7.15Q167.59 6.62 167.26 5.99L167.26 5.99L167.26 5.99Q166.92 5.36 166.42 4.55L166.42 4.55L166.42 4.55Q166.46 4.42 166.61 4.26L166.61 4.26L166.61 4.26Q166.75 4.09 166.94 3.94L166.94 3.94L166.94 3.94Q167.13 3.79 167.33 3.68L167.33 3.68L167.33 3.68Q167.54 3.57 167.72 3.54L167.72 3.54L167.72 3.54Q168.11 3.98 168.46 4.63L168.46 4.63L168.46 4.63Q168.81 5.28 169.08 6.03L169.08 6.03L169.08 6.03Q169.34 6.78 169.49 7.57L169.49 7.57L169.49 7.57Q169.64 8.37 169.64 9.10L169.64 9.10L169.64 9.10Q169.64 9.83 169.48 10.60L169.48 10.60L169.48 10.60Q169.32 11.37 169.03 12.10L169.03 12.10L169.03 12.10Q168.74 12.84 168.36 13.50L168.36 13.50L168.36 13.50Q167.99 14.15 167.54 14.67L167.54 14.67L167.54 14.67Q167.10 15.19 166.63 15.52L166.63 15.52L166.63 15.52Q166.15 15.85 165.68 15.93L165.68 15.93L165.68 15.93Q164.71 15.82 164.20 15.31L164.20 15.31L164.20 15.31Q163.69 14.80 163.69 13.90L163.69 13.90L163.69 13.90Q163.69 13.43 163.83 12.87L163.83 12.87L163.83 12.87Q163.98 12.31 164.23 11.75L164.23 11.75L164.23 11.75Q164.47 11.20 164.80 10.68L164.80 10.68L164.80 10.68Q165.13 10.15 165.50 9.73L165.50 9.73L165.50 9.73Q165.87 9.31 166.25 9.02L166.25 9.02L166.25 9.02Q166.63 8.72 166.99 8.64ZM165.56 15.37L165.56 15.37L165.56 15.37Q166.05 15.20 166.54 14.63L166.54 14.63L166.54 14.63Q167.03 14.06 167.43 13.28L167.43 13.28L167.43 13.28Q167.82 12.50 168.06 11.61L168.06 11.61L168.06 11.61Q168.31 10.72 168.31 9.90L168.31 9.90L168.31 9.90Q168.31 9.66 168.31 9.60L168.31 9.60L168.31 9.60Q168.31 9.55 168.29 9.49L168.29 9.49L168.29 9.49Q167.96 9.63 167.58 9.97L167.58 9.97L167.58 9.97Q167.20 10.30 166.82 10.75L166.82 10.75L166.82 10.75Q166.45 11.19 166.11 11.70L166.11 11.70L166.11 11.70Q165.77 12.22 165.51 12.74L165.51 12.74L165.51 12.74Q165.24 13.26 165.09 13.73L165.09 13.73L165.09 13.73Q164.93 14.21 164.93 14.57L164.93 14.57L164.93 14.57Q164.93 15.27 165.56 15.37Z"></path></g><!----><!----><g data-v-423bf9ae="" id="0445da14-c7c2-494d-a63d-569f234e4942" fill="white" transform="matrix(6.054490506946714,0,0,6.054490506946714,-1.8077337139817473,116.41068856224993)"><path d="M0.39 12.41L0.38 11.87L0.55 11.87L0.55 11.87Q0.94 11.87 1.07 11.73L1.07 11.73L1.07 11.73Q1.19 11.57 1.52 10.83L1.52 10.83L2.43 8.82L3.01 7.53L3.01 7.53Q3.27 6.97 3.32 6.86L3.32 6.86L3.32 6.86Q3.38 6.70 3.44 6.60L3.44 6.60L3.44 6.60Q3.49 6.51 3.50 6.45L3.50 6.45L3.60 6.21L5.02 2.74L5.32 2.74L5.32 2.74Q6.17 4.98 8.36 10.25L8.36 10.25L8.36 10.25Q8.81 11.34 9.00 11.64L9.00 11.64L9.00 11.64Q9.14 11.87 9.58 11.87L9.58 11.87L9.79 11.87L9.78 12.41L6.58 12.41L6.60 11.87L7.01 11.87L7.01 11.87Q7.63 11.87 7.63 11.70L7.63 11.70L7.63 11.70Q7.63 11.63 7.49 11.27L7.49 11.27L6.45 8.72L3.21 8.72L2.10 11.18L2.10 11.18Q1.96 11.50 1.96 11.63L1.96 11.63L1.96 11.63Q1.96 11.79 2.06 11.83L2.06 11.83L2.06 11.83Q2.15 11.87 2.54 11.87L2.54 11.87L3.11 11.87L3.11 12.41L0.39 12.41ZM4.89 4.79L3.47 8.10L6.21 8.10L4.89 4.79ZM18.01 3.64L17.52 3.64L17.52 3.08L21.03 3.08L21.02 3.64L20.28 3.64L20.28 3.64Q19.95 3.64 19.95 3.82L19.95 3.82L19.95 3.82Q19.95 3.98 20.14 4.48L20.14 4.48L22.74 10.94L25.68 4.18L25.68 4.18Q25.75 3.97 25.76 3.92L25.76 3.92L25.76 3.92Q25.76 3.79 25.66 3.74L25.66 3.74L25.66 3.74Q25.56 3.68 25.42 3.65L25.42 3.65L25.42 3.65Q25.33 3.64 25.07 3.64L25.07 3.64L24.62 3.64L24.60 3.08L27.43 3.08L27.41 3.64L27.00 3.64L27.00 3.64Q26.68 3.64 26.52 3.83L26.52 3.83L26.52 3.83Q26.44 3.93 25.98 4.94L25.98 4.94L25.98 4.94Q25.76 5.46 25.70 5.57L25.70 5.57L22.57 12.63L22.33 12.63L19.08 4.73L19.08 4.73Q18.76 3.93 18.61 3.79L18.61 3.79L18.61 3.79Q18.46 3.63 18.01 3.64L18.01 3.64ZM35.18 12.41L35.17 11.87L35.34 11.87L35.34 11.87Q35.73 11.87 35.86 11.73L35.86 11.73L35.86 11.73Q35.98 11.57 36.32 10.83L36.32 10.83L37.23 8.82L37.80 7.53L37.80 7.53Q38.07 6.97 38.11 6.86L38.11 6.86L38.11 6.86Q38.18 6.70 38.23 6.60L38.23 6.60L38.23 6.60Q38.28 6.51 38.29 6.45L38.29 6.45L38.39 6.21L39.82 2.74L40.11 2.74L40.11 2.74Q40.97 4.98 43.16 10.25L43.16 10.25L43.16 10.25Q43.61 11.34 43.80 11.64L43.80 11.64L43.80 11.64Q43.93 11.87 44.37 11.87L44.37 11.87L44.58 11.87L44.57 12.41L41.38 12.41L41.39 11.87L41.81 11.87L41.81 11.87Q42.42 11.87 42.42 11.70L42.42 11.70L42.42 11.70Q42.42 11.63 42.29 11.27L42.29 11.27L41.25 8.72L38.00 8.72L36.89 11.18L36.89 11.18Q36.76 11.50 36.76 11.63L36.76 11.63L36.76 11.63Q36.76 11.79 36.85 11.83L36.85 11.83L36.85 11.83Q36.95 11.87 37.33 11.87L37.33 11.87L37.91 11.87L37.91 12.41L35.18 12.41ZM39.68 4.79L38.27 8.10L41.01 8.10L39.68 4.79ZM52.90 3.64L52.32 3.64L52.33 3.08L55.84 3.08L55.84 3.64L55.61 3.64L55.61 3.64Q55.06 3.64 54.89 3.73L54.89 3.73L54.89 3.73Q54.76 3.81 54.76 4.28L54.76 4.28L54.76 11.22L54.76 11.22Q54.76 11.68 54.87 11.77L54.87 11.77L54.87 11.77Q54.97 11.87 55.51 11.87L55.51 11.87L56.05 11.87L56.07 12.41L52.49 12.41L52.47 11.87L52.83 11.87L52.83 11.87Q53.40 11.87 53.51 11.77L53.51 11.77L53.51 11.77Q53.62 11.67 53.62 11.25L53.62 11.25L53.62 4.14L53.62 4.14Q53.62 3.77 53.52 3.71L53.52 3.71L53.52 3.71Q53.41 3.64 52.90 3.64L52.90 3.64ZM64.30 3.64L63.81 3.64L63.82 3.08L67.41 3.08L67.41 3.64L66.77 3.64L66.77 3.64Q66.40 3.64 66.28 3.72L66.28 3.72L66.28 3.72Q66.17 3.80 66.17 4.16L66.17 4.16L66.17 11.22L66.17 11.22Q66.17 11.57 66.26 11.67L66.26 11.67L66.26 11.67Q66.34 11.77 66.64 11.77L66.64 11.77L66.64 11.77Q69.51 11.74 70.16 11.63L70.16 11.63L70.16 11.63Q70.38 11.61 70.46 11.39L70.46 11.39L70.46 11.39Q70.54 11.17 70.74 10.05L70.74 10.05L71.23 10.08L70.77 12.41L64.00 12.41L63.99 11.87L64.38 11.87L64.38 11.87Q64.89 11.87 64.96 11.80L64.96 11.80L64.96 11.80Q65.04 11.72 65.04 11.33L65.04 11.33L65.04 4.09L65.04 4.09Q65.04 3.80 64.89 3.72L64.89 3.72L64.89 3.72Q64.74 3.64 64.30 3.64L64.30 3.64ZM78.98 12.41L78.96 11.87L79.13 11.87L79.13 11.87Q79.52 11.87 79.65 11.73L79.65 11.73L79.65 11.73Q79.78 11.57 80.11 10.83L80.11 10.83L81.02 8.82L81.59 7.53L81.59 7.53Q81.86 6.97 81.90 6.86L81.90 6.86L81.90 6.86Q81.97 6.70 82.02 6.60L82.02 6.60L82.02 6.60Q82.07 6.51 82.09 6.45L82.09 6.45L82.18 6.21L83.61 2.74L83.90 2.74L83.90 2.74Q84.76 4.98 86.95 10.25L86.95 10.25L86.95 10.25Q87.40 11.34 87.59 11.64L87.59 11.64L87.59 11.64Q87.73 11.87 88.16 11.87L88.16 11.87L88.38 11.87L88.36 12.41L85.17 12.41L85.18 11.87L85.60 11.87L85.60 11.87Q86.21 11.87 86.21 11.70L86.21 11.70L86.21 11.70Q86.21 11.63 86.08 11.27L86.08 11.27L85.04 8.72L81.79 8.72L80.68 11.18L80.68 11.18Q80.55 11.50 80.55 11.63L80.55 11.63L80.55 11.63Q80.55 11.79 80.64 11.83L80.64 11.83L80.64 11.83Q80.74 11.87 81.12 11.87L81.12 11.87L81.70 11.87L81.70 12.41L78.98 12.41ZM83.47 4.79L82.06 8.10L84.80 8.10L83.47 4.79ZM96.50 3.64L96.11 3.64L96.13 3.08L99.23 3.08L99.23 3.08Q100.97 3.08 101.75 3.75L101.75 3.75L101.75 3.75Q102.53 4.42 102.52 5.37L102.52 5.37L102.52 5.37Q102.52 6.08 101.99 6.60L101.99 6.60L101.99 6.60Q101.42 7.14 100.73 7.35L100.73 7.35L100.73 7.35Q101.81 7.57 102.34 8.34L102.34 8.34L102.34 8.34Q102.86 9.08 102.85 10.01L102.85 10.01L102.85 10.01Q102.85 11.01 102.22 11.59L102.22 11.59L102.22 11.59Q101.62 12.13 100.67 12.28L100.67 12.28L100.67 12.28Q99.75 12.41 98.21 12.41L98.21 12.41L96.22 12.41L96.22 11.87L96.64 11.87L96.64 11.87Q97.00 11.87 97.11 11.80L97.11 11.80L97.11 11.80Q97.23 11.73 97.23 11.46L97.23 11.46L97.23 4.14L97.23 4.14Q97.23 3.81 97.08 3.72L97.08 3.72L97.08 3.72Q96.94 3.64 96.50 3.64L96.50 3.64ZM98.33 7.59L98.33 7.59L98.36 11.35L98.36 11.35Q98.36 11.63 98.53 11.71L98.53 11.71L98.53 11.71Q98.70 11.80 99.27 11.80L99.27 11.80L99.27 11.80Q101.53 11.80 101.53 9.91L101.53 9.91L101.53 9.91Q101.53 9.22 101.21 8.73L101.21 8.73L101.21 8.73Q100.89 8.24 100.37 8.02L100.37 8.02L100.37 8.02Q99.78 7.75 99.34 7.68L99.34 7.68L99.34 7.68Q98.86 7.59 98.33 7.59ZM98.36 4.01L98.36 7.19L99.74 7.19L99.74 7.19Q100.39 7.19 100.81 6.66L100.81 6.66L100.81 6.66Q101.21 6.15 101.22 5.54L101.22 5.54L101.22 5.54Q101.22 4.85 100.63 4.27L100.63 4.27L100.63 4.27Q100.06 3.69 98.78 3.69L98.78 3.69L98.78 3.69Q98.36 3.69 98.36 4.01L98.36 4.01ZM111.39 3.64L110.90 3.64L110.91 3.08L114.50 3.08L114.50 3.64L113.87 3.64L113.87 3.64Q113.49 3.64 113.38 3.72L113.38 3.72L113.38 3.72Q113.26 3.80 113.26 4.16L113.26 4.16L113.26 11.22L113.26 11.22Q113.26 11.57 113.35 11.67L113.35 11.67L113.35 11.67Q113.44 11.77 113.73 11.77L113.73 11.77L113.73 11.77Q116.60 11.74 117.26 11.63L117.26 11.63L117.26 11.63Q117.47 11.61 117.55 11.39L117.55 11.39L117.55 11.39Q117.63 11.17 117.83 10.05L117.83 10.05L118.32 10.08L117.86 12.41L111.10 12.41L111.08 11.87L111.47 11.87L111.47 11.87Q111.98 11.87 112.05 11.80L112.05 11.80L112.05 11.80Q112.13 11.72 112.14 11.33L112.14 11.33L112.14 4.09L112.14 4.09Q112.14 3.80 111.98 3.72L111.98 3.72L111.98 3.72Q111.83 3.64 111.39 3.64L111.39 3.64ZM126.07 3.64L126.05 3.08L133.27 3.08L133.27 3.08Q133.28 4.14 133.33 5.28L133.33 5.28L132.79 5.30L132.79 5.30Q132.77 4.66 132.72 4.25L132.72 4.25L132.72 4.25Q132.68 3.89 132.62 3.80L132.62 3.80L132.62 3.80Q132.57 3.71 132.45 3.69L132.45 3.69L132.45 3.69Q132.36 3.68 131.77 3.68L131.77 3.68L129.39 3.68L129.39 3.68Q128.84 3.68 128.70 3.77L128.70 3.77L128.70 3.77Q128.58 3.86 128.58 4.33L128.58 4.33L128.58 6.28L128.58 6.28Q128.58 6.69 128.63 6.76L128.63 6.76L128.63 6.76Q128.70 6.84 129.04 6.84L129.04 6.84L131.15 6.84L131.15 6.84Q131.52 6.84 131.60 6.73L131.60 6.73L131.60 6.73Q131.68 6.63 131.69 6.14L131.69 6.14L131.69 5.61L132.20 5.63L132.20 8.97L131.69 8.97L131.69 8.24L131.69 8.24Q131.69 7.66 131.61 7.57L131.61 7.57L131.61 7.57Q131.53 7.46 131.18 7.46L131.18 7.46L129.08 7.46L129.08 7.46Q128.75 7.46 128.66 7.54L128.66 7.54L128.66 7.54Q128.58 7.63 128.58 7.89L128.58 7.89L128.58 11.20L128.58 11.20Q128.58 11.57 128.66 11.67L128.66 11.67L128.66 11.67Q128.75 11.77 129.02 11.77L129.02 11.77L129.02 11.77Q131.94 11.75 132.47 11.69L132.47 11.69L132.47 11.69Q132.99 11.63 133.07 11.38L133.07 11.38L133.08 11.36L133.08 11.35L133.31 10.17L133.79 10.25L133.44 12.41L126.33 12.41L126.33 11.87L126.70 11.87L126.70 11.87Q127.26 11.87 127.35 11.80L127.35 11.80L127.35 11.80Q127.44 11.72 127.44 11.33L127.44 11.33L127.44 4.24L127.44 4.24Q127.44 3.82 127.29 3.73L127.29 3.73L127.29 3.73Q127.12 3.64 126.46 3.64L126.46 3.64L126.07 3.64ZM151.25 12.41L151.23 11.87L151.40 11.87L151.40 11.87Q151.79 11.87 151.92 11.73L151.92 11.73L151.92 11.73Q152.04 11.57 152.38 10.83L152.38 10.83L153.29 8.82L153.86 7.53L153.86 7.53Q154.13 6.97 154.17 6.86L154.17 6.86L154.17 6.86Q154.24 6.70 154.29 6.60L154.29 6.60L154.29 6.60Q154.34 6.51 154.36 6.45L154.36 6.45L154.45 6.21L155.88 2.74L156.17 2.74L156.17 2.74Q157.03 4.98 159.22 10.25L159.22 10.25L159.22 10.25Q159.67 11.34 159.86 11.64L159.86 11.64L159.86 11.64Q160.00 11.87 160.43 11.87L160.43 11.87L160.64 11.87L160.63 12.41L157.44 12.41L157.45 11.87L157.87 11.87L157.87 11.87Q158.48 11.87 158.48 11.70L158.48 11.70L158.48 11.70Q158.48 11.63 158.35 11.27L158.35 11.27L157.31 8.72L154.06 8.72L152.95 11.18L152.95 11.18Q152.82 11.50 152.82 11.63L152.82 11.63L152.82 11.63Q152.82 11.79 152.91 11.83L152.91 11.83L152.91 11.83Q153.01 11.87 153.39 11.87L153.39 11.87L153.97 11.87L153.97 12.41L151.25 12.41ZM155.74 4.79L154.33 8.10L157.07 8.10L155.74 4.79ZM168.39 3.64L168.38 3.08L170.55 3.08L176.29 10.48L176.29 4.14L176.29 4.14Q176.29 3.81 176.13 3.72L176.13 3.72L176.13 3.72Q175.98 3.64 175.52 3.64L175.52 3.64L175.03 3.64L175.05 3.08L178.04 3.08L178.04 3.64L177.71 3.64L177.71 3.64Q177.25 3.64 177.10 3.75L177.10 3.75L177.10 3.75Q176.95 3.86 176.95 4.25L176.95 4.25L176.95 12.32L176.95 12.47L176.95 12.47Q176.95 12.52 176.93 12.57L176.93 12.57L176.93 12.57Q176.92 12.61 176.89 12.64L176.89 12.64L176.89 12.64Q176.87 12.65 176.82 12.65L176.82 12.65L176.63 12.65L176.57 12.65L176.54 12.65L176.51 12.64L176.51 12.64Q176.48 12.64 176.47 12.63L176.47 12.63L176.47 12.63Q176.46 12.61 176.46 12.60L176.46 12.60L176.46 12.60Q176.46 12.58 176.44 12.57L176.44 12.57L176.44 12.57Q176.42 12.54 176.39 12.50L176.39 12.50L176.39 12.50Q176.37 12.48 176.35 12.45L176.35 12.45L176.35 12.45Q176.33 12.41 176.32 12.40L176.32 12.40L170.21 4.56L170.28 11.22L170.28 11.22Q170.28 11.67 170.45 11.77L170.45 11.77L170.45 11.77Q170.60 11.87 171.32 11.87L171.32 11.87L171.55 11.87L171.55 12.41L168.62 12.41L168.62 11.87L169.04 11.87L169.04 11.87Q169.42 11.87 169.52 11.76L169.52 11.76L169.52 11.76Q169.62 11.66 169.63 11.25L169.63 11.25L169.63 3.80L169.48 3.64L168.39 3.64ZM185.92 3.64L185.92 3.64L185.93 3.08L189.07 3.08L189.07 3.64L188.79 3.64L188.79 3.64Q188.34 3.64 188.23 3.66L188.23 3.66L188.23 3.66Q188.06 3.71 188.06 3.82L188.06 3.82L188.06 3.82Q188.06 3.89 188.31 4.31L188.31 4.31L190.31 7.46L192.76 3.99L192.76 3.99Q192.84 3.83 192.85 3.82L192.85 3.82L192.85 3.82Q192.85 3.64 191.93 3.64L191.93 3.64L191.71 3.64L191.70 3.08L194.24 3.08L194.24 3.64L194.17 3.64L194.17 3.64Q193.83 3.64 193.68 3.72L193.68 3.72L193.68 3.72Q193.53 3.80 193.24 4.22L193.24 4.22L190.51 8.17L190.51 11.22L190.51 11.22Q190.51 11.66 190.62 11.77L190.62 11.77L190.62 11.77Q190.72 11.87 191.33 11.87L191.33 11.87L191.97 11.87L191.95 12.41L188.02 12.41L188.03 11.87L188.59 11.87L188.59 11.87Q189.12 11.87 189.25 11.79L189.25 11.79L189.25 11.79Q189.38 11.70 189.38 11.25L189.38 11.25L189.38 8.06L187.08 4.49L187.08 4.49Q186.66 3.84 186.53 3.73L186.53 3.73L186.53 3.73Q186.42 3.64 185.92 3.64ZM202.26 5.35L201.76 5.33L201.76 5.33Q201.89 4.17 201.97 3.08L201.97 3.08L210.05 3.08L210.05 3.08Q209.97 4.13 209.94 4.53L209.94 4.53L209.94 4.53Q209.90 5.26 209.88 5.32L209.88 5.32L209.38 5.30L209.38 5.30Q209.46 4.34 209.46 4.16L209.46 4.16L209.46 4.16Q209.46 3.88 209.32 3.79L209.32 3.79L209.32 3.79Q209.15 3.69 208.74 3.69L208.74 3.69L207.14 3.69L207.14 3.69Q206.63 3.69 206.51 3.79L206.51 3.79L206.51 3.79Q206.41 3.87 206.40 4.36L206.40 4.36L206.40 11.22L206.40 11.22Q206.40 11.66 206.55 11.76L206.55 11.76L206.55 11.76Q206.71 11.87 207.22 11.87L207.22 11.87L207.78 11.87L207.79 12.41L204.10 12.40L204.10 11.87L204.32 11.87L204.32 11.87Q204.99 11.87 205.13 11.79L205.13 11.79L205.13 11.79Q205.28 11.70 205.28 11.28L205.28 11.28L205.28 4.48L205.28 4.48Q205.28 3.92 205.18 3.80L205.18 3.80L205.18 3.80Q205.08 3.69 204.65 3.69L204.65 3.69L203.18 3.69L203.18 3.69Q203 3.69 202.93 3.71L202.93 3.71L202.93 3.71Q202.86 3.72 202.75 3.72L202.75 3.72L202.75 3.72Q202.73 3.72 202.61 3.79L202.61 3.79L202.61 3.79Q202.53 3.84 202.50 3.86L202.50 3.86L202.50 3.86Q202.47 3.88 202.43 3.99L202.43 3.99L202.43 3.99Q202.41 4.05 202.38 4.14L202.38 4.14L202.38 4.14Q202.35 4.21 202.33 4.36L202.33 4.36L202.33 4.36Q202.30 4.59 202.30 4.61L202.30 4.61L202.30 4.61Q202.30 4.80 202.29 4.95L202.29 4.95L202.29 4.95Q202.29 5.02 202.28 5.15L202.28 5.15L202.28 5.15Q202.28 5.29 202.26 5.35L202.26 5.35ZM218.37 3.64L217.79 3.64L217.80 3.08L221.31 3.08L221.31 3.64L221.08 3.64L221.08 3.64Q220.53 3.64 220.36 3.73L220.36 3.73L220.36 3.73Q220.23 3.81 220.23 4.28L220.23 4.28L220.23 11.22L220.23 11.22Q220.23 11.68 220.34 11.77L220.34 11.77L220.34 11.77Q220.45 11.87 220.98 11.87L220.98 11.87L221.53 11.87L221.54 12.41L217.96 12.41L217.94 11.87L218.31 11.87L218.31 11.87Q218.87 11.87 218.98 11.77L218.98 11.77L218.98 11.77Q219.09 11.67 219.09 11.25L219.09 11.25L219.09 4.14L219.09 4.14Q219.09 3.77 218.99 3.71L218.99 3.71L218.99 3.71Q218.88 3.64 218.37 3.64L218.37 3.64ZM232.44 12.41L229.42 12.41L229.42 11.87L229.56 11.87L229.56 11.87Q230.15 11.87 230.26 11.77L230.26 11.77L230.26 11.77Q230.38 11.68 230.40 11.21L230.40 11.21L230.53 4.38L230.53 4.38Q230.53 4.35 230.54 4.28L230.54 4.28L230.54 4.28Q230.54 4.21 230.54 4.17L230.54 4.17L230.54 4.01L230.54 4.01Q230.54 3.76 230.47 3.71L230.47 3.71L230.47 3.71Q230.37 3.64 230.15 3.64L230.15 3.64L229.43 3.64L229.42 3.08L231.53 3.08L234.73 10.55L237.86 3.08L240.10 3.08L240.10 3.64L239.63 3.64L239.63 3.64Q239.18 3.64 239.05 3.71L239.05 3.71L239.05 3.71Q238.90 3.79 238.90 4.08L238.90 4.08L238.90 11.22L238.90 11.22Q238.90 11.68 239.01 11.77L239.01 11.77L239.01 11.77Q239.12 11.87 239.75 11.87L239.75 11.87L240.03 11.87L240.04 12.41L236.65 12.41L236.63 11.87L236.91 11.87L236.91 11.87Q237.52 11.87 237.64 11.77L237.64 11.77L237.64 11.77Q237.76 11.66 237.76 11.25L237.76 11.25L237.76 4.83L235.61 9.91L234.75 12.02L234.75 12.02Q234.62 12.37 234.57 12.44L234.57 12.44L234.57 12.44Q234.53 12.51 234.46 12.51L234.46 12.51L234.46 12.51Q234.36 12.51 233.91 11.52L233.91 11.52L231.10 5.01L231.04 11.39L231.04 11.39Q231.04 11.74 231.24 11.80L231.24 11.80L231.24 11.80Q231.48 11.87 232.44 11.87L232.44 11.87L232.44 12.41ZM247.78 3.64L247.77 3.08L254.98 3.08L254.98 3.08Q254.99 4.14 255.05 5.28L255.05 5.28L254.50 5.30L254.50 5.30Q254.49 4.66 254.43 4.25L254.43 4.25L254.43 4.25Q254.39 3.89 254.34 3.80L254.34 3.80L254.34 3.80Q254.28 3.71 254.17 3.69L254.17 3.69L254.17 3.69Q254.07 3.68 253.48 3.68L253.48 3.68L251.10 3.68L251.10 3.68Q250.56 3.68 250.41 3.77L250.41 3.77L250.41 3.77Q250.29 3.86 250.29 4.33L250.29 4.33L250.29 6.28L250.29 6.28Q250.29 6.69 250.35 6.76L250.35 6.76L250.35 6.76Q250.41 6.84 250.76 6.84L250.76 6.84L252.87 6.84L252.87 6.84Q253.23 6.84 253.31 6.73L253.31 6.73L253.31 6.73Q253.39 6.63 253.40 6.14L253.40 6.14L253.40 5.61L253.91 5.63L253.91 8.97L253.40 8.97L253.40 8.24L253.40 8.24Q253.40 7.66 253.33 7.57L253.33 7.57L253.33 7.57Q253.24 7.46 252.90 7.46L252.90 7.46L250.80 7.46L250.80 7.46Q250.46 7.46 250.38 7.54L250.38 7.54L250.38 7.54Q250.29 7.63 250.29 7.89L250.29 7.89L250.29 11.20L250.29 11.20Q250.29 11.57 250.38 11.67L250.38 11.67L250.38 11.67Q250.46 11.77 250.74 11.77L250.74 11.77L250.74 11.77Q253.65 11.75 254.18 11.69L254.18 11.69L254.18 11.69Q254.70 11.63 254.78 11.38L254.78 11.38L254.79 11.36L254.80 11.35L255.02 10.17L255.50 10.25L255.15 12.41L248.05 12.41L248.05 11.87L248.42 11.87L248.42 11.87Q248.98 11.87 249.06 11.80L249.06 11.80L249.06 11.80Q249.16 11.72 249.16 11.33L249.16 11.33L249.16 4.24L249.16 4.24Q249.16 3.82 249.01 3.73L249.01 3.73L249.01 3.73Q248.83 3.64 248.18 3.64L248.18 3.64L247.78 3.64Z"></path></g></svg>